<?xml version="1.0" encoding="utf-8"?>
<!-- Generator: Adobe Illustrator 19.0.0, SVG Export Plug-In . SVG Version: 6.00 Build 0)  -->
<svg version="1.1" id="Calque_1" xmlns="http://www.w3.org/2000/svg" xmlns:xlink="http://www.w3.org/1999/xlink" x="0px" y="0px"
	 viewBox="0 0 191 191" style="enable-background:new 0 0 191 191;" xml:space="preserve">
<style type="text/css">
	.st0{fill:#8F00FF;}
</style>
<path id="XMLID_76_" class="st0" d="M98.7,19c3.1,0.6,6.2,1.2,9.3,1.9c8.9,2,16.8,6.1,23.8,11.8c11,9.1,19.4,20.1,23.7,33.8
	c2.5,7.9,4,16,6.1,24c0.3,1,1.2,2.1,2.1,2.7c3.3,2.4,4.7,6.6,3.3,10.9c-1.1,3.5-4.5,6-8.3,5.9c-2,0-3.5,0.2-4.5,2.4
	c-1.2,2.6-3.1,4.8-4.5,7.3c-0.5,0.9-0.7,2-0.7,3.1c0,9.6,0,19.3,0,28.9c0,4.4-2.3,7.4-6.6,8.6c-1.2,0.3-2.4,0.4-3.9,0.7
	c0-7.6,0-14.9,0-22.3c-0.2,0-0.4,0-0.6,0c0,0.7,0,1.4,0,2.1c0,6,0,12.1,0,18.1c0,1.8-0.7,3.3-2.7,3.5c-1.6,0.2-3.2,0.6-4.7,0.3
	c-1.8-0.3-3.2-1.3-3.2-3.7c0.1-15.1,0-30.2,0.1-45.3c0-0.6,0.1-1.4,0.4-1.8c2.1-2.4,5.1-1.5,7.5-1.2c1.8,0.2,2.6,2.3,2.6,4.3
	c-0.1,2.5,0,5,0.4,7.5c0-3.4,0-6.9,0-10.5c2.1,0.5,3.9,0.9,5.8,1.4c1.2-1.8,2.5-3.7,3.7-5.6c1.1-1.7,1.7-3.4,0.8-5.6
	c-1-2.5,0.9-7.4,3.3-8.7c2.3-1.2,2.8-2.7,2-5.2c-1.8-5.9-3.5-11.8-5.1-17.7c-0.6-2.1-1.9-2.7-3.8-2.4c-0.7,0.1-1.5,0-2.3,0
	c-9.5-24.2-26.8-37.2-53.2-35.6C66.8,34.1,52.7,47.4,45,68.5c-4.9-1.6-5.3,2.3-6.2,5.3c-1.7,5.7-3.1,11.5-4.5,17.4
	c-0.2,0.8,0.3,2,0.9,2.6c3,3,3.7,6.5,2.6,10.4c-0.2,0.6-0.2,1.3,0.1,1.8c1.6,2.6,3.3,5.1,5.1,7.7c1.9-0.5,3.7-1,5.9-1.6
	c0,3.9,0,7.6,0,11.2c0.2,0,0.3,0,0.5,0c0-2.4,0-4.8,0-7.2c0-4.7,0.6-5.3,5.2-5.3c0.3,0,0.7,0,1,0c2.8,0,4.3,1.4,4.3,4.2
	c0,14.6,0,29.2,0,43.8c0,3.4-3.3,5.3-7.3,4.2c-2.1-0.6-3.4-1.7-3.3-4.2c0.2-5.6,0.1-11.2,0.1-16.9c0-0.8,0-1.6,0-2.4
	c-0.2,0-0.3,0-0.5,0c0,7.1,0,14.2,0,21.2c-4.3,1.3-11.5-3.2-11.2-8.6c0.5-10,0.2-20.1,0.2-30.2c0-0.7-0.4-1.4-0.7-2
	c-1.9-3.2-3.8-6.4-5.3-8.9c-3.2-0.9-6.1-1.3-8.5-2.6c-4.8-2.6-5.5-12.1,0.4-15.2c2.8-1.5,4.1-3.1,4.5-6.1c0.4-3.2,1.2-6.3,2-9.4
	c0.8-3.1,1.9-6.1,2.9-9.2c-0.6-0.1-1.4-0.2-2.6-0.3c1.8-4.1,3.3-8.1,5.3-11.9c4-7.5,9-14.5,15.4-20.2c9.2-8.3,19.6-14.1,32-16
	c1.7-0.3,3.3-0.7,4.9-1C91.6,19,95.1,19,98.7,19z"/>
<path id="XMLID_75_" class="st0" d="M126.3,136.5c0,8,0,15.9,0,23.9c0,3.7-1,5-4.6,5.5c-4.8,0.6-11-2.5-11-9c0-13.4,0-26.8,0-40.2
	c0-5.7,5.8-10.2,11.3-8.7c4.3,1.1,4.3,1.1,4.3,5.4C126.3,121.1,126.3,128.8,126.3,136.5z"/>
<path id="XMLID_72_" class="st0" d="M60.9,136.5c0-8.4,0.1-16.8-0.1-25.2c0-2,0.8-2.8,2.5-3.3c8-2.2,13.4,3.8,13.2,10.3
	c-0.3,12.6-0.1,25.2-0.1,37.7c0,7.7-8.2,11.8-14,8.9c-1.2-0.6-1.6-1.2-1.6-2.6C60.9,153.8,60.9,145.2,60.9,136.5z"/>
</svg>
