<?xml version="1.0" encoding="utf-8"?>
<!-- Generator: Adobe Illustrator 19.0.0, SVG Export Plug-In . SVG Version: 6.00 Build 0)  -->
<svg version="1.1" id="Calque_1" xmlns="http://www.w3.org/2000/svg" xmlns:xlink="http://www.w3.org/1999/xlink" x="0px" y="0px"
	 viewBox="0 0 191 191" style="enable-background:new 0 0 191 191;" xml:space="preserve">
<style type="text/css">
	.st0{fill:#F70303;}
</style>
<g id="XMLID_87_">
	<path id="XMLID_88_" class="st0" d="M94.5,42.2c22.2,0,44.5,0,66.7,0c7.1,0,12.4,4.8,12.4,12.5c0,30.4,0,60.8,0,91.2
		c0,7.7-5.4,12.6-12.6,12.6c-44.2,0-88.4-0.1-132.6,0c-7.3,0-12.6-5.2-12.6-12.7c0.1-30.6,0.1-61.1,0-91.7c0-7,5.8-12,11.9-12
		C50.1,42.2,72.3,42.2,94.5,42.2z M34.1,151.5c0.3-0.1,0.7-0.1,1-0.2c0-14.6,0-29.2,0-43.7c39.8,0,79.2,0,118.9,0
		c0,14.7,0,29.1,0,43.6c2.1,0.7,1.9-0.6,1.9-1.8c0-17.1,0-34.2,0-51.3c0-0.6-0.1-1.1-0.2-1.6c-40.8,0-81.4,0-122.1,0
		c0,11.2,0,22.1,0,33c0,6.6,0,13.1,0,19.7C33.7,150,34,150.7,34.1,151.5z M30.7,66.8c24.1,0,48.1,0,72,0c0-3.9,0-7.6,0-11.3
		c-24.1,0-48,0-72,0C30.7,59.3,30.7,62.9,30.7,66.8z M142.9,70c4.7,0.4,9-3.8,9.4-9c0.4-4.4-4.9-9.5-9.6-9.1
		c-5.9,0.4-9.2,3.9-9.4,9.3C133.2,65,137.4,70.5,142.9,70z M131.9,75.1c0,4.3,0,8.4,0,12.4c6.9,0,13.6,0,20.4,0c0-4.2,0-8.3,0-12.4
		C145.4,75.1,138.7,75.1,131.9,75.1z M30.7,89.5c6.9,0,13.7,0,20.4,0c0-4.2,0-8.3,0-12.3c-6.9,0-13.6,0-20.4,0
		C30.7,81.3,30.7,85.3,30.7,89.5z M67,111.7c-2.2-0.8-2,0.6-2,1.8c0,11.5,0,23.1,0,34.6c0,0.9,0,1.8,0,2.6c-0.8,0.2-1.4,0.3-2,0.4
		c0,0.1,0,0.1,0,0.2c1.8,0,3.6,0,4.7,0c-0.3-0.9-0.8-1.7-0.8-2.6C67,136.4,67,124.1,67,111.7z M101.5,144c0,0.2,0,0.3,0,0.5
		c2.1,0,4.2,0,6.3,0c0-0.1,0.1-0.2,0.1-0.3c-0.6-0.2-1.3-0.4-2-0.7c0-10.6,0-21.2,0-31.8c-2-0.7-2,0.5-2,1.8c0,8,0,16,0,24
		c0,2.1,0,4.2,0,6.2C102.9,143.8,102.2,143.9,101.5,144z M47.3,142.6c0-1,0-1.9,0-2.8c0-8.8,0-17.5,0-26.3c0-2,0-2-2.1-1.6
		c0,10.2,0,20.5,0,30.7c-0.9,0.2-1.7,0.4-2.5,0.6c0,0.1,0.1,0.2,0.1,0.4c2.3,0,4.6,0,6.8,0c0-0.2,0-0.3,0-0.5
		C49,142.9,48.2,142.8,47.3,142.6z M86.2,138.3c0-0.8,0-1.7,0-2.6c0-7.5,0-15,0-22.5c0-1.8-0.1-1.8-2.1-1.3c0,8.9,0,17.8,0,26.5
		c-1,0.4-1.8,0.8-2.6,1.1c0.1,0.2,0.2,0.4,0.3,0.6c2.3,0,4.6,0,6.9,0c0.1-0.2,0.1-0.5,0.2-0.7C88,139.1,87.2,138.7,86.2,138.3z
		 M140.4,131.5c0,0.1,0.1,0.3,0.1,0.4c2.1,0,4.2,0,6.3,0c0-0.1,0-0.3,0-0.4c-0.6-0.2-1.3-0.4-1.9-0.6c0-6,0-11.8,0-17.6
		c0-1.8-0.1-1.8-2.1-1.4c0,6.3,0,12.7,0,19.1C141.9,131.1,141.1,131.3,140.4,131.5z M120.1,121.9c2.9,1.5,5.2,1.8,7.8,0
		c-1.1-0.2-1.9-0.4-2.9-0.5c0-3.3,0-6.5,0-9.7c-0.2-0.1-0.5-0.3-0.7-0.4c-0.4,0.6-1.1,1.2-1.1,1.8c-0.1,2.8-0.1,5.5-0.1,8.4
		C122.2,121.5,121.4,121.6,120.1,121.9z"/>
</g>
</svg>
