<?xml version="1.0" encoding="utf-8"?>
<!-- Generator: Adobe Illustrator 19.0.0, SVG Export Plug-In . SVG Version: 6.00 Build 0)  -->
<svg version="1.1" id="Calque_1" xmlns="http://www.w3.org/2000/svg" xmlns:xlink="http://www.w3.org/1999/xlink" x="0px" y="0px"
	 viewBox="0 0 191 191" style="enable-background:new 0 0 191 191;" xml:space="preserve">
<style type="text/css">
	.st0{fill:#FFCE00;}
</style>
<path id="XMLID_76_" class="st0" d="M68.1,141.5c4.5-0.2,8.3-0.4,12-0.6c0-0.4,0-0.7,0-1.1c-3.7-0.2-7.5-0.4-11.8-0.7
	c0-3.1,0-6.2,0-9.9c3.8-0.3,7.8-0.6,11.8-0.9c0-0.3,0-0.7,0-1c-3.7-0.2-7.5-0.4-12.3-0.7c0-16.5-0.8-33.1,0.3-49.5
	C68.9,65.6,84,54.8,95.2,55.6c15.7,1.1,26,11.5,26,26.4c0,14.8,0,29.6,0,45c-4.7,0-8.5,0-12.2,0c0,0.4-0.1,0.9-0.1,1.3
	c3.8,0.2,7.7,0.5,11.9,0.8c0,3.3,0,6.2,0,9.9c-3.9,0.3-7.8,0.5-11.8,0.8c0,0.4,0,0.7-0.1,1.1c3.9,0.2,7.7,0.5,11.5,0.7
	c1.6,14.5-9.4,26-26.3,26.1C81,167.7,68,155.8,68.1,141.5z"/>
<path id="XMLID_75_" class="st0" d="M51.3,126.8c-0.5-3-1.4-5.9-1.4-8.9c-0.2-12.2-0.1-24.3-0.1-36.5c0-18.8,11.8-35.5,30-40.4
	c8.1-2.2,10.3-5.9,9.3-13.4c-0.5-4-0.1-8.1-0.1-12.6c3.8,0,6.6,0,10.7,0c0,5.8-0.5,11.7,0.2,17.4c0.3,2.5,2.5,6.4,4.5,6.9
	c26.9,6.9,34.9,25.6,36.2,47.2c0.6,10.4,0.4,20.8-0.1,31.2c-0.1,3.3-2.3,6.5-3.5,9.7c-1,0-2-0.1-2.9-0.1c-1.1-3.3-2.2-6.5-3.2-9.8
	c-0.3,0.3-0.5,0.5-0.8,0.8c-1.8-2.3-4.8-4.4-5-6.8c-0.1-1.7,3.4-3.7,6.5-6.8c-0.1-13.3,2.5-28.5-7.8-42.1
	c-15.8-20.7-40.3-19.9-56.3-3.1c-8.6,9-9.8,19.8-8.6,31.1c0.7,6.2-4.5,14.2,4.8,18.4c0.7,0.3,0.9,3.8,0.1,5
	c-3.1,4.6-6.6,8.9-10,13.2C53,127,52.2,126.9,51.3,126.8z"/>
</svg>
