<?xml version="1.0" encoding="utf-8"?>
<!-- Generator: Adobe Illustrator 19.0.0, SVG Export Plug-In . SVG Version: 6.00 Build 0)  -->
<svg version="1.1" id="Calque_1" xmlns="http://www.w3.org/2000/svg" xmlns:xlink="http://www.w3.org/1999/xlink" x="0px" y="0px"
	 viewBox="-325 202.3 191 191" style="enable-background:new -325 202.3 191 191;" xml:space="preserve">
<style type="text/css">
	.st0{fill:#F26922;}
</style>
<g id="XMLID_65_">
	<path id="XMLID_63_" class="st0" d="M-234.5,300.8c-1.5-5.8-3-11.6-4.4-17.4c-2.2-8.7-4.3-17.4-6.5-26c-0.3-1.3,0.1-1.8,1.2-2
		c6.2-1.4,12.6-2,18.9-1.5c11.3,0.8,21.9,4.4,31.3,10.7c8.1,5.3,14.5,12.3,19.5,20.6c3.7,6.2,6.3,12.9,7.7,20c1,5,1.4,10.3,1.2,15.4
		c-0.3,9.3-2.6,18.2-6.9,26.6c-4.1,8-9.6,14.9-16.7,20.4c-3.9,3-8.3,5.5-12.5,8.2c-0.5,0.3-1,0.4-1.6,0.7
		c-6.5-13.9-13-27.7-19.5-41.6c5.2-2.3,9-6,10.9-11.4c1.4-4.2,1.2-8.4-0.6-12.6C-216.4,302.4-225.5,298.1-234.5,300.8z"/>
	<path id="XMLID_62_" class="st0" d="M-261.2,303.2c-1.2-3.3-3.4-5.6-7-5.4c-2.5,0.1-4.8,1.3-5.5,4.2c-5.6-1.8-10.3,1.5-9.7,7.8
		c-0.6,0-1.1,0.1-1.7,0.1c-2.9,0-5.3,2.5-5.3,5.4c0,7,0,14,0,21c0,0.3,0,0.5,0,0.8c-2-1.8-4.1-18-3.5-23.2
		c2.5-24.5,14.4-42.4,36.2-53.9c1.3,2.9,2.6,5.7,3.9,8.5c4.4,9.4,8.9,18.8,13.3,28.2c0.7,1.4,1.2,3,2,4.4c0.5,1,0.4,1.6-0.6,2.2
		c-7.9,5.4-10.3,15.8-5,24.4c0.8,1.2,1.8,2.4,2.8,3.4c1.1,1,2.3,1.8,3.7,2.8c-5.3,0.6-9.6,3.2-14.4,5.7c0-0.8,0-1.5,0-2.2
		c0-8.9,0.1-17.8-0.1-26.7c0-2-0.8-4.2-1.9-5.9C-255.5,302.1-258.1,301.7-261.2,303.2z"/>
	<path id="XMLID_61_" class="st0" d="M-214.6,380.1c-13.5,3.3-26.7,2.2-39.7-2.9c0-3.8,0.2-7.5-0.1-11.3c-0.2-3.7,1.6-6.4,3.3-9.3
		c2.7-4.7,7.5-6.7,11.7-9.5c1.4-1,2.9-1.9,4.1-3.1c3.7-3.8,3.3-5.6,0.5-8.8c2.9,0.2,5.9,0.4,9.2,0.7
		C-222.1,350.2-218.4,365-214.6,380.1z"/>
	<path id="XMLID_72_" class="st0" d="M-282.3,311.5c0.7-2.5-1-5.4,1.5-7.6c2.3-2,4.8-1.9,7.6-0.7c0.9-3.4,3.2-5,6.6-4.3
		c3.5,0.7,4.5,3.4,4.3,6.9c1.3-1.5,2.6-2.6,4.6-2.4c3.1,0.4,4.2,2.3,4.6,5.7c0.2,1.7,0,3.5,0,5.3c0.1,8.5,0.3,17,0.4,25.4
		c0,0.3,0.1,0.6,0.1,0.6c4.1-1.8,8-3.6,12.1-5.3c2.2-0.9,4.9,0.1,6.1,1.7c1,1.4,0.9,3.6-0.7,5.5c-1,1.3-2.5,2.3-3.8,3.2
		c-3.4,2.4-7.2,4.4-10.2,7.2c-4.5,4.3-7.1,9.7-6.4,16.3c0.2,1.9,0.2,3.7,0.4,5.6c0.2,1.5-0.7,1.9-1.9,2.2c-0.1,0-0.3,0-0.4,0
		c-7.8,0.1-15.6,0.2-23.5,0.4c-1.1,0-1.6-0.4-1.7-1.4c-0.5-4.3-0.8-8.7-1.7-13c-0.9-4.8-2.5-9.5-3.6-14.3c-0.6-2.7-1.2-5.5-1.4-8.3
		c-0.3-5.4-0.4-10.8-0.4-16.2c0-3.3,0.2-6.6,0.4-9.9c0.1-2.3,2.9-4.2,5-3.5C-283.5,311-282.9,311.3-282.3,311.5z M-280,375
		c0.7,0,1.4,0,2,0c5.3-0.1,10.7-0.3,16-0.4c0.9,0,1.7-0.1,2.5,0c1.9,0.3,2.2-0.8,2-2.4c-0.2-1.9-0.3-3.9-0.4-5.8
		c-0.2-7.8,4-13.3,9.7-17.8c3.1-2.5,6.6-4.4,9.9-6.6c1.1-0.8,2.5-1.6,1.6-3.4c-0.8-1.6-2.2-1.4-3.6-0.9c-4.5,1.5-8.7,3.7-12.5,6.5
		c-0.4,0.3-1.2,0.5-1.7,0.4c-0.3-0.1-0.5-1-0.5-1.5c-0.2-7.7-0.3-15.4-0.4-23.1c0-3.2,0-6.4,0-9.6c0-0.8-0.2-1.5-0.4-2.3
		c-0.3-1.1-0.7-2.3-2.2-2.2s-1.9,1.2-2,2.4c-0.3,2.4-0.8,4.7-0.8,7.1c0,4.8,0.2,9.5,0.4,14.3c0.1,1.5-0.3,2.2-2,2.2
		c-1.9,0-1.9-0.9-1.9-2.3c-0.1-8.5-0.3-17-0.4-25.4c0-1.8-1.2-2.6-2.6-2.9c-1.4-0.3-2.8,0.3-3,2c-0.1,1.4,0,2.8,0,4.1
		c0.1,3.8,0.3,7.7,0.4,11.5c0,0.3,0.1,0.6,0.1,1c0.2,3.7,0.5,7.4,0.6,11.1c0,0.4-0.4,1-0.7,1.2c-1.9,0.8-3.1-0.1-3.1-2.2
		c-0.1-4.8-0.2-9.5-0.4-14.3c-0.1-3-0.5-6.1-0.8-9.1c-0.1-0.5-0.6-1.2-1.1-1.5c-2.1-1-4.3,0.4-4.3,2.7c0,2.5,0.3,4.9,0.4,7.4
		c0.2,5.5,0.3,10.9,0.4,16.4c0,1,0.2,1.9,0.3,2.9c0.1,1.2,0,2.3-1.6,2.4c-1.3,0.1-2.4,0.1-2.4-1.8c0.1-4,0.1-8,0-12
		c-0.1-2.8-0.4-5.5-0.8-8.3c-0.1-0.7-1.1-1.2-1.7-1.8c-0.6,0.7-1.6,1.3-1.6,2.1c-0.3,2.7-0.5,5.4-0.4,8.2c0,6,0.2,12,0.4,18
		c0,1.3,0.3,2.7,0.6,4c1.4,5.4,3,10.8,4.1,16.3C-281.1,365.9-280.7,370.4-280,375z"/>
	<path id="XMLID_69_" class="st0" d="M-243.3,317.9c-0.4-7.8,6.3-14.7,14.9-14.4c7.4,0.3,13.8,6.8,13.7,14.2
		c-0.2,8.5-6,14.3-14.5,14.5C-236.7,332.3-243.8,325.6-243.3,317.9z M-234.6,317.8c0,2.8,2.9,6,5.6,5.7c3.6-0.4,5.5-2.5,5.8-5.9
		c0.2-2.5-2.9-5.4-5.5-5.5C-232,312.1-234.6,314.6-234.6,317.8z"/>
	<path id="XMLID_56_" class="st0" d="M-184.1,250.2c4.7-0.6,9.4-1.3,14.3-2c-2.8-3.3-5.4-6.4-8-9.5c0.1-0.1,0.2-0.2,0.3-0.3
		c3.1,2.6,6.2,5.3,9.4,8c0.7-8.9,1.4-17.7,2-26.6c0.1,0,0.3,0,0.4,0c0.7,8.7,1.3,17.4,2,26.5c3.4-2.9,6.4-5.5,9.5-8.1
		c0.1,0.1,0.3,0.2,0.4,0.3c-2.6,3.1-5.3,6.2-8.2,9.6c5.1,0.7,9.8,1.3,14.5,2c0,0.1,0,0.3,0,0.4c-4.8,0.7-9.5,1.3-14.5,2
		c2.7,3.2,5.4,6.3,8.1,9.5c-0.1,0.1-0.2,0.2-0.3,0.3c-3.1-2.6-6.1-5.2-9.4-8c-0.7,8.9-1.4,17.6-2.1,26.2c-0.1,0-0.3,0-0.4,0
		c-0.7-8.6-1.3-17.3-2-26.3c-3.2,2.7-6.3,5.3-9.3,7.9c-0.1-0.1-0.2-0.2-0.4-0.4c2.6-3,5.2-6.1,8-9.4c-5-0.7-9.7-1.3-14.4-2
		C-184.1,250.5-184.1,250.4-184.1,250.2z"/>
	<path id="XMLID_55_" class="st0" d="M-298.6,246.6c1.6,1.3,3.1,2.6,5.1,4.3c0.4-5,0.8-9.7,1.2-14.4c0.1,0,0.2,0,0.4,0
		c0.4,4.7,0.8,9.3,1.2,14.4c1.9-1.6,3.6-3,5.2-4.3c0.1,0.1,0.2,0.2,0.2,0.3c-1.4,1.7-2.7,3.3-4.3,5.2c2.8,0.4,5.3,0.8,7.8,1.2
		c0,0.1,0,0.2,0,0.4c-2.5,0.3-5,0.7-7.9,1.1c1.5,1.8,3,3.5,4.4,5.1c-0.1,0.1-0.2,0.2-0.3,0.3c-1.6-1.3-3.2-2.6-5.1-4.2
		c-0.4,5-0.8,9.6-1.2,14.2c-0.1,0-0.2,0-0.3,0c-0.4-4.6-0.8-9.3-1.2-14.2c-1.8,1.5-3.5,2.8-5.1,4.1c-0.1-0.1-0.2-0.2-0.3-0.3
		c1.4-1.7,2.8-3.3,4.3-5.2c-2.8-0.4-5.2-0.7-7.7-1c0-0.1,0-0.2-0.1-0.4c2.5-0.4,5-0.8,7.7-1.2c-1.5-1.8-2.9-3.5-4.2-5.2
		C-298.8,246.8-298.7,246.7-298.6,246.6z"/>
	<path id="XMLID_54_" class="st0" d="M-235.9,231.4c-1.8,1.5-3.4,2.9-5.1,4.3c-0.1-0.1-0.3-0.2-0.4-0.3c1.4-1.7,2.8-3.3,4.3-5.1
		c-2.7-0.4-5.2-0.8-7.7-1.2c0-0.1,0-0.2,0.1-0.4c2.5-0.3,4.9-0.7,7.6-1.1c-1.4-1.7-2.8-3.4-4.2-5.1c0.1-0.1,0.1-0.2,0.2-0.3
		c1.6,1.3,3.2,2.6,5.1,4.1c0.4-5,0.8-9.6,1.1-14.2c0.1,0,0.3,0,0.4,0c0.3,4.6,0.7,9.2,1.1,14.3c1.9-1.5,3.4-2.8,5-4.1
		c0.1,0.1,0.2,0.2,0.3,0.4c-1.4,1.6-2.8,3.3-4.2,5c2.6,0.4,5.2,0.7,7.7,1.1c0,0.1,0,0.2,0.1,0.3c-1.2,0.3-2.4,0.6-3.6,0.7
		c-1.3,0.2-2.5,0.2-4.2,0.4c1.6,1.9,2.9,3.5,4.2,5.1c-0.1,0.1-0.2,0.2-0.3,0.3c-1.6-1.3-3.1-2.5-5.1-4.1c-0.4,5.1-0.7,9.8-1.1,14.4
		c-0.1,0-0.2,0-0.4,0C-235.1,241.1-235.5,236.4-235.9,231.4z"/>
</g>
</svg>
