<?xml version="1.0" encoding="utf-8"?>
<!-- Generator: Adobe Illustrator 19.0.0, SVG Export Plug-In . SVG Version: 6.00 Build 0)  -->
<svg version="1.1" id="Calque_1" xmlns="http://www.w3.org/2000/svg" xmlns:xlink="http://www.w3.org/1999/xlink" x="0px" y="0px"
	 viewBox="0 0 191 191" style="enable-background:new 0 0 191 191;" xml:space="preserve">
<style type="text/css">
	.st0{fill:#FFF800;}
</style>
<path id="XMLID_124_" class="st0" d="M146.7,121.2c1.3-0.1,1.1,0.8,1.1,1.6c0,6.9,0,13.8,0,20.7c0,0.7,0,1.4,0,2.1
	c4.3-0.9,7.1,1.3,9.5,4.4c0,0.1,0,0.3,0,0.4c-3.8,3-7.6,6-11.4,8.9c-5,3.9-10.1,7.8-15.1,11.7c-1.9,1.5-3.8,3.1-5.7,4.7
	c-0.6,0-1.3,0-1.9,0c-3.4-0.8-6.8-1.6-10.2-2.3c-8.2-1.7-16.3-3.3-24.5-4.9c-6.6-1.3-13.2-2.6-19.8-3.8c-6-1.2-12-2.3-18-3.5
	c-0.6-0.1-1.2,0.1-1.7,0c-0.2,0-0.5-0.3-0.7-0.4c0.2-0.2,0.4-0.4,0.6-0.6c0.4-0.2,0.9-0.3,1.1-0.6c1.9-3.1,5-4.4,8.2-5.4
	c0.6-0.2,1.3,0.1,2,0.2c5.5,0.9,10.9,1.9,16.4,2.8c4.8,0.8,9.6,1.6,14.4,2.5c4.8,0.8,9.6,1.7,14.4,2.5c4.7,0.8,9.5,1.4,14.2,2.5
	c2.4,0.5,3.7-0.6,5.2-1.9c1.4-1.1,2.9-2.1,4.1-3.5c-1.3,0.9-2.8,1.6-3.9,2.7c-2,2.1-4.4,1.9-6.9,1.5c-6.6-1.2-13.1-2.2-19.7-3.4
	c-6.1-1.1-12.2-2.3-18.4-3.3c-6.3-1.1-12.6-2-18.8-3.1c-0.5-0.1-1.2-0.8-1.2-1.2c-0.1-8.6-0.1-17.2-0.1-26c3.1,0.4,6,0.8,8.9,1.3
	c4.5,0.7,9,1.4,13.5,2.1c5.2,0.8,10.4,1.7,15.5,2.6c4.3,0.7,8.7,1.3,13,2c3.4,0.5,6.8,1.1,10.3,1.5c0.7,0.1,1.4-0.4,2.2-0.7
	c2.9-1.7,5.9-3.4,8.7-5.1C137.2,127.2,142,124.2,146.7,121.2z M137.1,135.5c0.5-0.1,1.2-0.4,1.6-0.2c1.9,0.8,3.8,1.7,5.7,2.6
	c1.2,0.6,1.6,2.5,0.8,3.5c-1.9,2.6-3.7,5.2-5.6,7.9c1.6,1,2.9,1.9,4.2,2.6c1.3,0.7,2.1,1.7,1.9,3.2c-0.2,1.7-1.4,2.3-3.2,2.1
	c1.8,1,3.2,0.7,4.1-0.7c0.9-1.6,0.5-3.7-1-4.6c-1.6-0.9-3.1-1.9-4.8-2.9c1.8-2.5,3.2-4.8,5-7c1.8-2.1,1.5-4.1-1.1-5.2
	c-1.8-0.7-3.7-1.3-5.5-2.2C138,134.1,137.6,134.5,137.1,135.5c-0.5,1.1-1,2.2-1.6,3.3c1.3,0.6,2.3,1,3.3,1.4
	c-2.3-0.9-2.6-2.4-1.5-4.4C137.3,135.8,137.2,135.6,137.1,135.5z"/>
<path id="XMLID_121_" class="st0" d="M133.8,88.7c0.3-2.3,1-4.5,0.7-6.5c-0.7-4.6-3.9-6.2-8-6.1c-5.8,0.1-11.6,1-17.4,1.7
	c-5.4,0.7-10.8,1.6-16.2,2.3c-0.5,0.1-1.1-0.2-1.7-0.4c-1.5,8.7-4.5,17.2-10.1,24.5c-3.1,4.1-7,7.5-12.3,8.6
	c-5.7,1.1-10.9-0.2-15.3-4c-7-6-10.6-14-13-22.6c-1.5-5.3-2.6-10.6-2.6-16.1c0-4.8-0.4-9.6,0.1-14.4c1-10.1,3.4-19.9,9-28.5
	c3.2-4.9,7.1-9.2,12.9-11.1c6.5-2.1,12.4-0.5,17.4,4.1c7.3,6.6,11,15.3,13.1,24.7c1.1,4.7,1.6,9.5,2.3,13.5c0-1.1,0-3.1,0-5.3
	c1.3,0.5,2.3,0.8,3.3,1.3c6.8,3.6,14.3,5.3,21.7,7.2c5.4,1.4,10.6,3.2,15.2,6.5c4,2.9,5.5,7,6.4,11.5c0.3,1.6,0.4,3.2,0.4,4.8
	C139.6,88.4,137.6,89.9,133.8,88.7z M85.5,91.4c-0.1-0.5,0-1.2-0.3-1.4c-3.7-2.8-5.4-6.6-5.4-11.1c0-5.2,0.5-10.4,0.7-15.5
	c0.1-4.6,0-9.2,0.1-13.8c0-1.6,0.2-3.3,0.8-4.7c1-2.3,2.5-4.4,4-7c4.2,11,5,21.7,4.8,32.6c0.5-8.1,0.2-16.1-1.6-24
	c-2.2-9.3-5.5-18-12.7-24.7c-6.7-6.2-15-6-21.5-0.1c-3.9,3.6-6.8,8-8.9,12.9c-3.6,8.1-5.3,16.7-5.6,25.5c-0.2,4.5,0.1,9,0.4,13.5
	c0.1,1.8,0.4,3.6,0.8,5.3c0.3,1.7,0.8,3.4,1.3,5.7c0.6-6.4,2.3-8.6,8.2-9.9c2.1-0.5,4.3-0.6,6.4-1c4.7-1,9.5-1.3,14.2-0.3
	c0.2,0.8,0.5,1.6,0.5,2.4c0,1.6,2.1,3.1,0.5,4.6c-1.2,1.1-2.9,1.6-4.4,2.3c-0.1,0-0.1,0-0.2,0c-6.3,1.8-11.1,5.6-14.4,11.2
	c-1.3,2.3-2.5,4.6-3.8,7c0.5,0.6,1,1.1,1.4,1.6c0.2-0.5,0.4-0.9,0.5-1.3c1.7-5.9,4.9-10.9,10-14.2c3.5-2.3,7.6-3.7,11.5-5.4
	c0.2-0.1,0.5,0,0.7,0.1c0.5,1.7-0.5,2.8-1.5,3.6c-4.4,3.2-6.7,7.8-8,12.8c-1.1,4.2-1.1,8.5,1.9,12.2c0.3,0.4,1,0.9,1.4,0.8
	c2.3-0.5,4.7-1,6.4-3C79.2,103.8,83.1,98.2,85.5,91.4z"/>
<path id="XMLID_84_" class="st0" d="M146.7,121.2c-4.8,3-9.6,6-14.4,8.9c-2.9,1.8-5.8,3.4-8.7,5.1c-3.4-0.4-6.8-0.8-10.1-1.3
	c-3.9-0.5-7.7-1.1-11.5-1.7c-4.6-0.7-9.2-1.3-13.7-2c-3.8-0.6-7.7-1.2-11.5-1.7c-4.6-0.7-9.2-1.3-13.8-2c-2.4-0.4-4.9-0.8-7.7-1.2
	c0.5-0.5,0.7-0.8,1-0.9c6.2-2.8,12.5-5.6,18.8-8.3c0.5-0.2,1.3-0.2,1.6,0.1c3.1,3.3,7.3,4,11.4,4.8c4,0.7,8,0.9,12,1.2
	c9,0.7,17.8-0.1,26.4-3.1c1.5-0.5,2.7-1.7,4.1-2.6l-0.1,0.1c0.9-0.6,1.7-1.3,2.6-1.9c0.1,0.1,0.2,0.2,0.4,0.3c0-0.7,0.1-1.5,0.1-2.4
	c5.1-0.7,5.8-5,6.6-8.8c0.8-3.5,0.8-7.2,1.2-11.1c-2.7,1.4-5,0.7-7.2,0c-3-1-3-1-2.8-4.7c0.6,0.3,1.1,0.6,1.6,0.9
	c2.3,1.5,3,1.5,5.4,0.1c2.7-1.7,4.7-1,5.1,2.4c0.8,8.1-0.9,15.9-3.2,23.5c-0.1,0.3-0.2,0.7-0.3,1c4,0.6,8,1.2,12.4,1.8
	C150.2,119,148.5,120.1,146.7,121.2z"/>
<path id="XMLID_117_" class="st0" d="M130.5,116.3c-3.5,2.1-7.4,3.3-11.4,4c-2.2,0.4-4.4,0.8-6.6,0.9c-3.7,0.2-7.5,0.6-11.3,0.3
	c-7.1-0.4-14.4-0.6-21.1-3.7c-1.3-0.6-2.5-1.4-3.3-2.5c-0.4-0.6-0.3-2.1,0.2-2.8c2.2-2.7,5.5-3.5,8.7-4.1c4.1-0.8,8.2-1.2,12.3-1.6
	c2.9-0.3,5.7-0.2,8.6-0.4c1.9-0.1,2.8,0.7,3,2.6c0.2,2.4,1.3,4.2,3.3,5.5c0.4,0.3,0.6,1.1,0.9,1.6c0.6,0.8,1,2.1,1.9,2.4
	c1.4,0.6,2-0.8,2.1-1.9c0.1-1.3,1-1.9,1.7-2.8c1.2-1.5,2-3.3,3.2-5.3c2,0.8,4.4,1.4,6.3,2.7C131.3,112.8,132.1,112.9,130.5,116.3
	C130.4,116.4,130.5,116.3,130.5,116.3z M101.3,113c2,1.6,3.5,1.6,5.7,0C104.8,111.4,103.3,111.4,101.3,113z"/>
<path id="XMLID_114_" class="st0" d="M112.3,101.6c-2.6-3.2-0.6-5.2,2.1-6.1c4.1-1.4,8.1-0.3,12,0.8c1.9,0.5,3.2,0.6,4-1.6
	c0.3-0.9,1-1.7,1.5-2.5c1.7,0.6,3.5,1.1,5.3,1.7c-0.1,0.3-0.3,0.7-0.5,1c-1.2,1.6-1.8,3.3-1.7,5.5c0.1,2.5-2.6,3.6-5.3,2.4
	c-1.2-0.5-2.1-1.5-3.3-2.1c-2-0.9-4-1.8-6.1-2.5c-1.6-0.5-2.9,0.4-3.9,1.9c2.1,0.6,3.7,2,4.1,4c0.4,1.9,0.4,4,0,5.8
	c-0.3,1.3-1.6,2.3-2.5,3.5c-0.4,0.6-0.8,1.3-1.2,2c-0.3,0.6-0.6,1.3-0.9,2c-0.3-0.6-0.6-1.3-0.9-1.9c-0.3-0.5-0.3-1.4-0.8-1.6
	c-3.6-1.9-4.7-6.9-2.9-10.4C111.6,102.9,112,102.3,112.3,101.6z M116.1,106.7c0-1.6,0-3,0-4.3c-0.2,0-0.3,0-0.5,0c0,1.3,0,2.6,0,4
	c-0.8-0.6-1.6-1.1-2.3-1.7c0.7,1.2,1.9,2.2,2.3,3.4c0.4,1.3-0.1,2.7-0.2,4.1c0.3,0,0.5,0,0.8,0c0-1.3,0-2.6,0-4.1
	c0.8,0.6,1.4,1,1.9,1.5c0.1-0.1,0.1-0.2,0.2-0.3c-0.7-0.7-1.5-1.4-2.2-2c0.9-0.5,1.7-1,2.5-1.5c-0.1-0.1-0.2-0.3-0.2-0.4
	C117.8,105.7,117.1,106.1,116.1,106.7z"/>
<path id="XMLID_79_" class="st0" d="M73.3,108.1c-1,0.4-1.9,0.8-2.9,1.2c-3,1.5-5.1,0.5-5.8-2.7c-1.3-6.1,0.2-11.6,3.9-16.6
	c1.3-1.7,2.9-3.1,4.3-4.7c0.6-0.7,1.1-1.4,1.5-1.9c1.8,0.4,3.6,0.7,5.2,1.3c0.7,0.3,1.1,1.3,1.7,1.9c1.4,1.6,2.8,3.2,4.2,4.7
	C83.1,98.2,79.2,103.8,73.3,108.1z"/>
<path id="XMLID_78_" class="st0" d="M41.2,78.1c-1.6-8.8-1.6-17.8,0-26.5c2.3,1.3,4.6,3.2,7.1,3.9c4.1,1.2,8.5,1.8,12.7,2.2
	c3.2,0.3,6.4,0.1,9.5,0.1c0,4.6,0,9.3,0,14.4c-0.9-0.1-1.9-0.4-2.8-0.3c-3.5,0.1-7.1,0-10.5,0.4c-3.3,0.4-6.6,1-9.7,2.1
	C45.2,75,43.3,76.7,41.2,78.1z"/>
<path id="XMLID_77_" class="st0" d="M50.2,27.7c0.9,4.4,3.3,7.8,5.7,11.1c1.9,2.7,4.2,4.8,7.2,6.3c2.3,1.1,4.7,2.3,7,3.5
	c2.3,1.2,2.6,1.9,1.7,4.3c-0.4,1.2-0.8,2.8-1.7,3.2c-1.6,0.7-3.5,1-5.2,0.7c-5-0.9-9.9-2.1-14.7-3.3c-1.6-0.4-3.3-1-4.5-1.9
	c-2.8-2.2-4-3.4-2.9-7.4c1.5-5.4,3.5-10.5,6.4-15.3C49.4,28.6,49.7,28.3,50.2,27.7z"/>
<path id="XMLID_76_" class="st0" d="M75.2,46.4c-1-0.9-2.2-1.8-3.3-2.9c-3.9-3.8-6.3-8.4-6.8-13.8c-0.2-3.1-0.1-6.1,1.9-8.7
	c1.3-1.7,2.4-2.1,4.4-1.1c5.3,2.6,8.7,7.1,11.5,12.1c0.3,0.6,0.6,1.2,0.9,1.8c1.8,3.6,1.7,3.5-0.9,6.5c-1.1,1.2-1.6,2.9-2.5,4.3
	c-0.3,0.5-0.9,0.9-1.5,1.1C77.6,46,76.3,46.2,75.2,46.4z"/>
<path id="XMLID_75_" class="st0" d="M67.3,18.1c-1.9,2.5-3.2,5-3.5,8c-0.3,3.4,0.2,6.6,1.6,9.7c1.6,3.6,3.4,7,6.8,9.4
	c0.9,0.6,1.5,1.7,2.2,2.6c-0.1,0.2-0.3,0.5-0.4,0.7c-1-0.3-2.2-0.5-3.1-0.9c-2.6-1.2-5.2-2.5-7.8-3.8c-4.1-2-6.5-5.6-8.8-9.3
	c-1.1-1.8-2-4-2.6-6c-1-3.1,1.4-4.7,3.3-6.4c2.7-2.3,5.8-4,9.4-4.3C65.2,17.6,66.2,17.9,67.3,18.1z"/>
<path id="XMLID_72_" class="st0" d="M79.1,47.2c0.1,1,0.3,1.8,0.3,2.6c0,4.3,0.1,8.7,0,13c-0.1,5-0.6,10-0.7,15
	c-0.1,1.9,0.3,3.8,0.5,5.7c-2.1,0.8-4,0.1-5.1-2.6c-1.3-3.1-2.4-6.3-3-9.6c-0.8-5.2-0.6-10.4,0.7-15.5c0.7-2.9,1.5-5.9,4-8
	C77,46.9,78,46.4,79.1,47.2z"/>
</svg>
