<?xml version="1.0" encoding="utf-8"?>
<!-- Generator: Adobe Illustrator 19.0.0, SVG Export Plug-In . SVG Version: 6.00 Build 0)  -->
<svg version="1.1" id="Calque_1" xmlns="http://www.w3.org/2000/svg" xmlns:xlink="http://www.w3.org/1999/xlink" x="0px" y="0px"
	 viewBox="0 0 418.5 117.5" style="enable-background:new 0 0 418.5 117.5;" xml:space="preserve">
<style type="text/css">
	.st0{fill:#242014;}
	.st1{fill:#70CDDD;}
	.st2{fill:#6ACBDE;}
	.st3{fill:#ED1C24;}
	.st4{fill:#6CBE45;}
	.st5{fill:#8C50A0;}
	.st6{fill:#3C53A4;}
	.st7{fill:#ECE70E;}
	.st8{fill:#F6891F;}
	.st9{fill:#179A48;}
</style>
<g>
	<g>
		<rect id="XMLID_220_" x="1.1" y="1.1" class="st0" width="416.2" height="115.3"/>
		<path class="st1" d="M418.5,117.5H0V0h418.5V117.5z M2.2,115.3h414V2.2H2.2V115.3z"/>
	</g>
	<g>
		<path class="st2" d="M32,94.9c-3.8-1.1-7.7-2.4-11.7-4c-0.2-1.2-0.3-2.5-0.1-3.8c0.1-1.3,0-2.6-0.3-4c-0.8-0.4-1.7-0.7-2.6-0.9
			c-0.9-0.2-1.8-0.5-2.8-1.1c-0.1-9.1-0.1-18.3,0-27.4c0-9.2,0-18.4,0-27.7l0.3-0.4c0.8-0.1,1.6-0.4,2.4-0.7
			c0.8-0.4,1.6-0.6,2.5-0.8c0.1-0.1,0.1-0.1,0.3-0.2c0.1-0.1,0.2-0.2,0.4-0.5v-3.1l0.4-0.4c4.9-2.2,9.8-2,14.7,0.5
			c5.1,2.6,10.1,4.4,15,5.2l0.3,0.4v7c0,0.1,0.3,0.4,1,0.9c0.9,0.2,1.8,0.5,2.5,0.7c0.7,0.2,1.4,0.5,2.1,0.8l0.3,0.4v16
			c-3.1,2-6.2,2.4-9.3,1.2c-1.6-0.6-3.1-1.2-4.7-1.7c-1.6-0.5-3.1-1-4.7-1.5c-0.1-2.5-0.1-5,0-7.5c0-2.5,0-5,0-7.6l-0.5-0.5
			c-0.6-0.2-1.3-0.4-2.1-0.6c-0.8-0.2-1.5-0.4-2.3-0.6c-0.1,8.2-0.2,16.4-0.2,24.6c0,8.1,0.1,16.3,0.4,24.5c1.2,0.7,2.7,1.1,4.3,1.4
			l0.3-0.4V72.7c1.1-0.8,2.2-1.3,3.3-1.6c1.2-0.3,2.3-0.3,3.6-0.2c1.2,0.1,2.4,0.4,3.6,0.8c1.2,0.4,2.4,0.8,3.7,1.2
			c0.5,0.3,1.4,0.6,2.5,0.8c0.7,0.2,1.2,0.5,1.5,0.7l0.4,0.6v15.7c-0.8,0.5-1.6,0.9-2.6,1.1c-1,0.2-1.9,0.5-2.8,1l-0.4,0.5v3.1
			L50.4,97c-1.1,0.2-2.2,0.6-3.3,1s-2.3,0.8-3.4,0.9h-0.2C39.7,97.3,35.8,96,32,94.9z M20.2,34.5v-5.3l-0.4-0.6
			c-0.7-0.2-1.3-0.5-1.9-0.7c-0.6-0.2-1.2-0.4-1.7-0.6l-0.4,0.2V33l0.4,0.5c0.6,0.3,1.2,0.5,1.8,0.6c0.6,0.1,1.2,0.3,1.8,0.6
			L20.2,34.5z M20.2,42.4c-0.2-1.1-0.2-2.1,0-3.2c0.1-1,0-2.1-0.4-3.1c-0.7-0.1-1.3-0.3-1.9-0.5c-0.6-0.2-1.2-0.4-1.7-0.5l-0.4,0.1
			c0.1,1.1,0.1,2.1,0,3.1c-0.1,1,0,2,0.1,2.8c1.3,0.6,2.6,1.1,3.9,1.5L20.2,42.4z M20.2,50.2c-0.2-1.1-0.2-2.1-0.1-3
			c0.1-0.9,0.1-1.9-0.2-2.9c-0.8-0.2-1.6-0.5-2.2-0.8c-0.7-0.3-1.3-0.4-2-0.4v5.6l0.4,0.6c0.6,0.3,1.2,0.5,1.8,0.6
			c0.6,0.1,1.2,0.3,1.8,0.7L20.2,50.2z M20.2,58.1C20.1,57,20.1,56,20.1,55c0.1-1,0-1.9-0.1-2.9c-0.7-0.4-1.4-0.6-2-0.8
			c-0.7-0.2-1.3-0.4-1.9-0.6l-0.4,0.2v5.6l0.4,0.5c0.6,0.1,1.2,0.3,1.8,0.6c0.6,0.3,1.2,0.5,1.8,0.8L20.2,58.1z M20.2,65.8
			c-0.2-1-0.2-2,0-3.1c0.1-1,0-2.1-0.4-3.1c-0.7-0.2-1.3-0.4-1.9-0.6c-0.6-0.1-1.2-0.4-1.7-0.7l-0.4,0.3v5.6c0.5,0.5,1.2,0.8,1.9,1
			c0.7,0.2,1.4,0.4,2.1,0.7L20.2,65.8z M20.2,73.6c-0.2-1.1-0.2-2.1,0-3.2c0.1-1,0-2-0.4-3c-0.7-0.1-1.3-0.3-1.9-0.6
			c-0.6-0.3-1.2-0.5-1.7-0.6l-0.4,0.2V72l0.4,0.6c0.6,0.1,1.2,0.2,1.8,0.5c0.6,0.3,1.2,0.5,1.8,0.7L20.2,73.6z M20.2,81.6
			c-0.2-1-0.2-2-0.1-3.1c0.1-1.1,0.1-2.1-0.2-3.1c-2-0.8-3.4-1.2-4.3-1.2v5.7l0.4,0.5c0.6,0.2,1.2,0.4,1.8,0.6
			c0.6,0.2,1.2,0.4,1.8,0.8L20.2,81.6z M20.2,27c-0.1-0.2-0.1-0.5-0.1-0.8c0.1-0.3,0-0.5-0.1-0.7l-0.3-0.2c-0.4,0.2-0.8,0.3-1.2,0.5
			c-0.4,0.1-0.8,0.3-1.2,0.4c0.4,0.2,0.8,0.3,1.2,0.5c0.4,0.1,0.8,0.3,1.2,0.4L20.2,27z M26.1,91c-0.2-1.1-0.2-2.1-0.1-3
			c0.1-0.9,0.1-1.9-0.2-2.9c-0.8-0.1-1.5-0.4-2.2-0.7c-0.7-0.4-1.4-0.5-2-0.5c0.1,1.1,0.1,2.1,0,3.2c-0.1,1,0,2.1,0.3,3.1
			c0.6,0.2,1.2,0.4,1.9,0.6c0.6,0.2,1.3,0.4,1.9,0.8L26.1,91z M26.1,28.8c-0.2-1-0.2-2,0-3.1c0.1-1,0-2.1-0.4-3.1
			c-0.6-0.3-1.2-0.5-1.9-0.6s-1.3-0.3-1.9-0.5l-0.4,0.2c0.1,1.1,0.1,2.1,0,3.1c-0.1,1,0,1.9,0.1,2.8c0.7,0.3,1.4,0.6,2.1,0.8
			c0.7,0.3,1.3,0.5,1.9,0.8L26.1,28.8z M26.1,44.4c-0.2-1.1-0.2-2.1,0-3.1c0.1-1,0-2-0.4-3.1c-0.6-0.1-1.2-0.2-1.9-0.5
			s-1.3-0.5-1.9-0.6l-0.4,0.2c0.1,1,0.1,2,0,3c-0.1,1,0,1.9,0.1,2.9c0.7,0.3,1.4,0.6,2.1,0.8c0.7,0.2,1.3,0.5,1.9,0.7L26.1,44.4z
			 M26.1,60c-0.2-1.1-0.2-2.1,0-3.2c0.1-1,0-2.1-0.4-3.1c-0.6-0.1-1.2-0.3-1.9-0.5s-1.3-0.4-1.9-0.5l-0.4,0.1c0.1,1.1,0.1,2.1,0,3.1
			c-0.1,1,0,1.9,0.1,2.8c0.7,0.3,1.4,0.6,2.1,0.8c0.7,0.2,1.3,0.5,1.9,0.8L26.1,60z M26.1,36.5c-0.1-1-0.1-2,0-3
			c0.1-1,0-1.9-0.2-2.9c-0.7-0.4-1.3-0.6-2-0.8c-0.7-0.1-1.3-0.4-2-0.7l-0.4,0.2v5.9c0.5,0.5,1.2,0.8,1.9,0.8
			c0.7,0.1,1.4,0.3,2.1,0.8L26.1,36.5z M26.1,51.9v-5.3l-0.5-0.5c-0.6-0.3-1.2-0.5-1.9-0.7c-0.6-0.1-1.3-0.3-1.9-0.6L21.5,45v5.9
			c0.5,0.4,1.2,0.7,1.9,0.8c0.7,0.1,1.4,0.3,2.1,0.8L26.1,51.9z M26.1,67.6v-5.3l-0.5-0.5c-0.6-0.3-1.2-0.5-1.9-0.7
			c-0.6-0.1-1.3-0.4-1.9-0.7l-0.4,0.2v5.9c0.5,0.5,1.2,0.8,1.9,0.8c0.7,0.1,1.4,0.3,2.1,0.8L26.1,67.6z M26.1,75.6
			c-0.2-1-0.2-2-0.1-3.1c0.1-1,0.1-2.1-0.2-3.1c-0.8-0.2-1.5-0.4-2.2-0.7c-0.7-0.3-1.4-0.5-2-0.5v5.9c0.5,0.4,1.2,0.6,1.9,0.8
			c0.7,0.2,1.4,0.5,2.1,0.9L26.1,75.6z M26.1,83.3c-0.2-1-0.2-2-0.1-3c0.1-1,0.1-2-0.2-3c-0.7-0.2-1.3-0.4-1.9-0.6
			c-0.6-0.2-1.2-0.4-1.8-0.6h-0.6v6c0.5,0.3,1.2,0.5,1.9,0.7c0.7,0.2,1.4,0.4,2.1,0.8L26.1,83.3z M28.4,20.9
			c0.6-0.1,1.2-0.3,1.7-0.4l-0.1-0.3c-0.6-0.1-1.2-0.3-1.8-0.5c-0.6-0.2-1.1-0.4-1.6-0.4c-0.7,0.3-1.3,0.5-2,0.6
			c-0.7,0.1-1.2,0.3-1.6,0.6c0.6,0.1,1.2,0.2,1.8,0.5c0.6,0.3,1.2,0.5,1.8,0.7C27.2,21.2,27.8,21,28.4,20.9z M31.9,93.2
			c-0.1-1-0.1-2,0-3.1c0.1-1.1,0-2.1-0.3-3c-0.7-0.3-1.3-0.5-2-0.7c-0.7-0.2-1.3-0.4-2-0.7l-0.4,0.3c0,1.1,0,2.1-0.1,3.1
			c-0.1,1,0,1.9,0.2,2.8c0.7,0.4,1.4,0.6,2,0.8c0.7,0.2,1.3,0.4,1.9,0.8L31.9,93.2z M31.9,30.7c-0.1-1-0.1-2,0-3.1
			c0.1-1,0-2.1-0.4-3.1c-0.8-0.1-1.5-0.3-2.2-0.7c-0.7-0.3-1.3-0.5-2-0.5v5.7l0.4,0.5c0.7,0.3,1.3,0.5,1.9,0.7
			c0.6,0.1,1.2,0.3,1.7,0.6L31.9,30.7z M34.3,22.9c0.6-0.1,1.2-0.4,1.6-0.8c-0.6-0.1-1.2-0.2-1.8-0.4s-1.1-0.4-1.6-0.4
			c-0.6,0.3-1.2,0.5-1.9,0.6c-0.7,0.1-1.2,0.3-1.5,0.6c0.6,0.1,1.2,0.2,1.7,0.5c0.5,0.3,1.1,0.5,1.7,0.6
			C33.1,23.1,33.7,22.9,34.3,22.9z M34.3,85.2c0.7-0.1,1.3-0.3,1.8-0.5c-0.6-0.3-1.1-0.5-1.6-0.6c-0.5-0.1-0.9-0.3-1.4-0.6
			c-1.1,0-2.4,0.4-3.9,1.2c1,0.2,2.1,0.6,3.4,1.2C33,85.6,33.6,85.3,34.3,85.2z M37.8,95.1c-0.2-1.1-0.2-2.1,0-3.2
			c0.1-1,0-2.1-0.4-3.1c-0.7-0.1-1.3-0.3-1.9-0.5c-0.6-0.2-1.2-0.4-1.7-0.5L33.1,88c0.2,1,0.2,2,0,3c-0.1,1-0.1,1.9,0.2,2.8
			c0.7,0.3,1.4,0.6,2,0.8c0.7,0.3,1.3,0.5,2,0.8L37.8,95.1z M37.6,32.8v-5.7L37,26.5c-0.7-0.1-1.4-0.3-2-0.6
			c-0.7-0.4-1.3-0.5-1.9-0.4v5.6l0.4,0.5c0.6,0.3,1.2,0.5,1.8,0.6c0.6,0.1,1.2,0.3,1.8,0.6L37.6,32.8z M37.8,87.2
			c-0.1-0.2-0.1-0.5-0.1-0.7c0.1-0.2,0-0.4-0.1-0.6h-0.4c-0.3,0.2-0.6,0.3-0.8,0.3c-0.2,0-0.4,0.1-0.6,0.2l-1,0.4
			c0.4,0.1,0.8,0.2,1.3,0.4c0.4,0.1,0.9,0.3,1.3,0.5L37.8,87.2z M40.2,24.8c0.7-0.1,1.2-0.3,1.6-0.8c-2.6-0.9-4.9-0.9-6.8,0.1
			c0.6,0.3,1.2,0.5,1.8,0.7c0.6,0.2,1.2,0.4,1.8,0.6C39,25.1,39.5,24.9,40.2,24.8z M43.6,34.4v-5.2l-0.5-0.5c-0.7-0.3-1.3-0.5-2-0.7
			c-0.6-0.2-1.2-0.4-1.8-0.6l-0.5,0.2v5.9c0.6,0.5,1.3,0.8,2,0.8c0.7,0.1,1.4,0.3,2.1,0.7L43.6,34.4z M43.6,81.4v-5.6l-0.4-0.5
			c-1.6-0.6-2.8-1-3.6-1.2l-0.4,0.2c0.1,1.1,0.1,2.1,0,3.1c-0.1,1,0,1.9,0.2,2.8c0.7,0.4,1.4,0.6,2,0.8c0.6,0.2,1.3,0.4,1.9,0.8
			L43.6,81.4z M43.6,97c-0.2-1.1-0.2-2.1,0-3.2c0.1-1,0-2.1-0.4-3.1c-0.7-0.1-1.3-0.3-1.9-0.5c-0.6-0.2-1.2-0.4-1.7-0.5l-0.4,0.1
			c0.1,1.1,0.1,2.1,0,3.1c-0.1,1,0,1.9,0.2,2.8c0.7,0.4,1.4,0.7,2,0.9c0.6,0.2,1.3,0.5,1.9,0.7L43.6,97z M43.6,42.5
			c-0.2-1-0.2-2-0.1-3.1c0.1-1,0.1-2.1-0.2-3.1c-0.8-0.2-1.5-0.4-2.2-0.7c-0.7-0.3-1.4-0.5-2.1-0.5V41c0.6,0.4,1.2,0.6,2,0.8
			c0.7,0.2,1.4,0.5,2,0.9L43.6,42.5z M43.6,50.2c-0.2-1.1-0.2-2.1-0.1-3c0.1-0.9,0.1-1.9-0.2-2.9c-0.8-0.2-1.5-0.4-2.2-0.8
			c-0.7-0.4-1.4-0.5-2.1-0.4v6c0.6,0.4,1.2,0.7,2,0.8c0.7,0.1,1.4,0.3,2,0.8L43.6,50.2z M43.6,89.2c-0.1-1.1-0.1-2.1-0.1-3.1
			c0.1-1,0-2-0.1-2.8c-0.7-0.4-1.4-0.6-2-0.8c-0.7-0.1-1.3-0.4-1.9-0.7L39.1,82V88c0.7,0.3,1.4,0.5,2,0.7c0.7,0.1,1.3,0.4,2,0.8
			L43.6,89.2z M46,26.7c0.6-0.2,1.2-0.4,1.8-0.5c-0.7-0.4-1.3-0.6-1.9-0.7c-0.6-0.1-1.2-0.3-1.7-0.5c-0.3,0.2-0.6,0.4-0.8,0.4
			c-0.2,0-0.4,0.1-0.6,0.2c-0.4-0.1-0.7,0-1,0.3c-0.3,0.2-0.6,0.4-0.9,0.4c0.7,0.2,1.2,0.4,1.8,0.6c0.5,0.2,1.1,0.4,1.6,0.7
			C44.8,27.1,45.4,26.9,46,26.7z M44.4,74.1c0.6-0.2,1.1-0.4,1.6-0.6c0.5-0.1,1-0.4,1.5-0.7c-0.6-0.2-1.2-0.4-1.7-0.5
			c-0.5-0.1-1.1-0.3-1.6-0.6c-0.6,0.3-1.2,0.5-1.9,0.7c-0.7,0.1-1.2,0.4-1.6,0.7c0.7,0.1,1.2,0.2,1.8,0.5c0.5,0.3,1.1,0.5,1.6,0.6
			H44.4z M49.6,44.4v-5.6c-0.3-0.4-0.6-0.7-0.8-0.7c-0.7-0.1-1.4-0.2-2.1-0.5c-0.7-0.3-1.3-0.4-1.8-0.4v5.6l0.4,0.6
			c0.6,0.2,1.2,0.4,1.8,0.6c0.6,0.1,1.2,0.4,1.8,0.8L49.6,44.4z M49.6,52.2c-0.2-1-0.2-2-0.1-3.1c0.1-1.1,0-2.1-0.4-3
			c-0.7-0.3-1.3-0.5-1.9-0.6c-0.6-0.1-1.2-0.3-1.8-0.6L44.9,45v5.6c0.2,0.4,0.5,0.6,0.7,0.6c0.4,0.1,0.9,0.2,1.4,0.4
			c0.5,0.2,1.2,0.5,2,0.8L49.6,52.2z M49.6,83.5c-0.2-1.1-0.2-2.1-0.1-3.2c0.1-1,0-2.1-0.4-3.1c-0.8-0.1-1.6-0.3-2.2-0.7
			c-0.7-0.3-1.3-0.5-2-0.5v5.7l0.4,0.5c0.6,0.3,1.2,0.5,1.8,0.7c0.6,0.1,1.2,0.3,1.8,0.6L49.6,83.5z M49.6,91.1
			c-0.2-1-0.2-2-0.1-2.9c0.1-0.9,0-1.9-0.2-2.9c-0.7-0.2-1.4-0.5-2-0.7s-1.3-0.5-1.9-0.8L44.9,84v5.6l0.4,0.5
			c1.4,0.4,2.6,0.8,3.6,1.3L49.6,91.1z M50.2,37.1c0.7-0.4,1.2-0.6,1.7-0.7s1.1-0.3,1.6-0.5l-0.2-0.3c-0.9-0.2-1.9-0.4-2.8-0.6
			c-0.9-0.2-1.9-0.1-2.8,0.3c-0.2,0.2-0.4,0.4-0.7,0.4c-0.3,0-0.4,0.1-0.4,0.3c0.8,0,2,0.4,3.5,1.2L50.2,37.1z M51.9,75.5
			c0.6-0.1,1.1-0.3,1.6-0.7c-0.5-0.1-1.1-0.2-1.7-0.5c-0.6-0.3-1.1-0.5-1.6-0.6c-0.6,0.4-1.2,0.6-1.9,0.7c-0.7,0.1-1.2,0.3-1.6,0.6
			c0.7,0.1,1.2,0.2,1.8,0.5c0.5,0.3,1.1,0.5,1.7,0.6C50.7,75.7,51.2,75.5,51.9,75.5z"/>
		<path class="st3" d="M61.5,100c-0.9-0.2-1.9-0.6-2.8-1.1V28.7c2.7-1.1,5.7-2.1,8.8-3.2c3.1-1.1,6.2-0.9,9.2,0.8l0.4,0.7v44v12.7
			l0.4,0.4c3.5-0.8,7.2-2.1,11.2-3.9c3.7-1.8,7.5-1.6,11.4,0.4l0.3,0.4v8.1c-5.9,2.1-11.8,4.1-17.8,6.2c-6,2.1-12,3.9-18,5.6h-0.3
			C63.4,100.5,62.5,100.2,61.5,100z M64.3,37.5c-0.1-1-0.1-2,0-3.1s0-2.1-0.2-3.1c-0.7-0.3-1.4-0.5-2-0.7c-0.6-0.1-1.3-0.4-1.9-0.8
			l-0.4,0.4c0.1,1,0.1,2,0,3c-0.1,1,0,1.9,0.1,2.9c0.7,0.3,1.4,0.5,2,0.7c0.6,0.2,1.3,0.4,1.9,0.8L64.3,37.5z M64.3,68.3
			c-0.1-1.1-0.1-2.1,0-3c0.1-0.9,0-1.9-0.2-2.8c-0.7-0.2-1.4-0.5-2-0.8c-0.6-0.3-1.3-0.5-1.9-0.8l-0.4,0.4c0.1,1,0.1,2,0,3
			c-0.1,1,0,1.9,0.1,2.9c0.7,0.4,1.4,0.6,2,0.7c0.6,0.1,1.3,0.4,1.9,0.8L64.3,68.3z M64.3,45.1c-0.1-1-0.1-2,0-3.1
			c0.1-1,0-2.1-0.4-3.1c-0.8-0.1-1.6-0.3-2.2-0.6c-0.7-0.3-1.3-0.4-2-0.4v5.5l0.4,0.5c0.7,0.3,1.3,0.5,1.9,0.7
			c0.6,0.1,1.2,0.4,1.7,0.7L64.3,45.1z M64.3,52.8c-0.1-1.1-0.1-2.1,0-3c0.1-0.9,0-1.9-0.2-2.8c-1.3-0.6-2.6-1.1-3.9-1.5l-0.4,0.2
			v5.6l0.4,0.6c0.7,0.1,1.3,0.3,1.9,0.5c0.6,0.2,1.2,0.5,1.8,0.8L64.3,52.8z M64.3,60.4c-0.1-1-0.1-2,0-2.9c0.1-0.9,0-1.9-0.2-2.9
			c-0.7-0.4-1.4-0.6-2-0.7c-0.6-0.1-1.3-0.4-1.9-0.7l-0.4,0.3V59c0.6,0.5,1.3,0.9,2,1c0.8,0.1,1.5,0.4,2.1,0.8L64.3,60.4z M64.3,76
			v-5.5c-0.3-0.4-0.5-0.7-0.6-0.7c-0.7-0.1-1.4-0.3-2.1-0.6c-0.7-0.3-1.3-0.4-1.8-0.4v5.6l0.4,0.5c0.7,0.3,1.3,0.5,1.9,0.7
			c0.6,0.1,1.2,0.4,1.7,0.8L64.3,76z M64.3,83.5v-5.2L64,77.7c-0.7-0.2-1.3-0.4-1.9-0.6c-0.6-0.2-1.2-0.4-1.7-0.6l-0.5,0.2v5.6
			c0.2,0.4,0.5,0.6,0.7,0.6c0.5,0.1,1,0.2,1.5,0.4c0.5,0.2,1.1,0.5,1.8,0.8L64.3,83.5z M64.3,91.5c-0.1-1.1-0.1-2.1,0-3.1
			c0.1-1,0-1.9-0.1-2.9c-1.9-0.8-3.4-1.3-4.4-1.3v5.6l0.4,0.5c0.7,0.3,1.3,0.5,1.9,0.7c0.6,0.1,1.2,0.4,1.7,0.7L64.3,91.5z
			 M64.3,99.3c-0.1-1-0.1-2,0-3.1c0.1-1,0-2-0.4-3c-0.7-0.3-1.3-0.5-1.9-0.7c-0.6-0.1-1.2-0.4-1.7-0.7L59.8,92v5.6
			c0.1,0.4,0.4,0.6,0.7,0.7c0.5,0.1,1,0.2,1.5,0.4c0.5,0.2,1.1,0.5,1.8,0.8L64.3,99.3z M66.6,29.6c0.7-0.1,1.2-0.3,1.7-0.6
			c-0.5-0.3-0.9-0.5-1.4-0.5c-0.5-0.1-0.9-0.2-1.3-0.5c-1.1,0-2.4,0.4-3.9,1.2c0.5,0.1,1,0.2,1.6,0.4c0.6,0.2,1.2,0.5,1.8,0.8
			C65.4,29.9,65.9,29.7,66.6,29.6z M72.5,27.5c0.7-0.1,1.2-0.3,1.6-0.6c-1.1-0.4-2.3-0.6-3.5-0.8c-1.2-0.1-2.3,0.2-3.2,1
			c0.8,0.1,1.9,0.4,3.3,1.1C71.2,27.8,71.8,27.6,72.5,27.5z M77.7,87.9c0.4-0.2,0.8-0.4,1.2-0.5c0.4-0.1,0.8-0.3,1.1-0.5
			c-0.5-0.1-1-0.3-1.4-0.4c-0.4-0.2-0.9-0.2-1.3-0.1c0.1,0.3,0.1,0.6,0.1,0.8c-0.1,0.3,0,0.5,0.1,0.8H77.7z M84,85.6
			c0.6-0.2,1.2-0.4,1.8-0.6l-0.2-0.3c-0.5-0.1-1.1-0.2-1.7-0.4c-0.6-0.2-1.1-0.4-1.6-0.5c-0.7,0.4-1.3,0.6-2,0.7
			c-0.7,0.1-1.2,0.3-1.5,0.5c0.6,0.2,1.1,0.4,1.6,0.6c0.5,0.2,1.1,0.4,1.6,0.5C82.8,86,83.4,85.8,84,85.6z M89.9,83.5
			c0.7-0.1,1.3-0.3,1.8-0.5c-1.1-0.3-2.1-0.6-3.2-0.8c-1-0.3-2,0-3,0.7c-0.7,0.3-1,0.4-1,0.3c0.6,0.2,1.2,0.4,1.8,0.6
			c0.6,0.1,1.2,0.4,1.8,0.7C88.6,83.9,89.2,83.7,89.9,83.5z M95.5,81.8c0.6-0.1,1.1-0.3,1.6-0.4l0.3-0.3c-1.1-0.4-2.3-0.6-3.5-0.8
			c-1.2-0.2-2.3,0.2-3.2,1.1c0.6,0.1,1.2,0.2,1.7,0.4c0.5,0.2,1.1,0.5,1.6,0.7C94.4,82.1,94.9,81.9,95.5,81.8z"/>
		<path class="st4" d="M111.2,98.1c-0.9-0.3-1.9-0.6-2.8-1c-0.1-0.7,0-1.3,0-2c0.1-0.7,0-1.3-0.4-2c-0.9-0.4-1.8-0.7-2.6-0.9
			c-0.9-0.2-1.8-0.5-2.7-0.9c-0.2-10.5-0.2-20.9-0.1-31.3s0.1-20.8,0-31.3c0.2,0,0.3-0.1,0.4-0.3c0.1-0.2,0.3-0.3,0.6-0.4
			c2.8-0.6,5.7-1.5,8.5-2.7c2.8-1.1,5.7-0.7,8.7,1.2c0.1,7.2,0.1,14.3,0.1,21.3c-0.1,7-0.1,14.2,0,21.5v14.3l0.4,0.4
			c0.5-0.1,1.1-0.3,1.8-0.6c0.7-0.3,1.3-0.5,1.9-0.5l0.3-0.1c0.2-0.3,0.4-0.6,0.6-0.9v-61c1.1-0.4,2.3-0.9,3.5-1.3
			c1.2-0.5,2.5-1,3.8-1.6c2.8-1.2,5.5-1.3,8-0.4c0.4,0.2,0.9,0.3,1.4,0.5c0.5,0.1,1.1,0.4,1.7,0.8c0,6.6,0,13.3,0,20.1
			s0,13.6,0,20.4c-0.1,3.9-0.1,7.7,0,11.2c0.1,3.6,0,7.2-0.2,11l-0.8,0.4c-0.6,0-1.2,0.2-2,0.6c-0.7,0.4-1.4,0.6-2.1,0.7
			c-0.3,0.1-0.5,0.4-0.7,0.7v6.9l-0.4,0.4c-4,1.4-7.9,2.7-11.9,4.1c-3.9,1.4-7.9,2.6-12,3.7H114C113.1,98.7,112.2,98.3,111.2,98.1z
			 M108.3,37.3c-0.2-1.1-0.2-2.1-0.1-3c0.1-0.9,0.1-1.9-0.2-2.8c-0.7-0.3-1.4-0.5-2-0.8c-0.7-0.2-1.3-0.5-1.9-0.8l-0.4,0.3
			c0.1,1,0.1,2,0,3c-0.1,1,0,1.9,0.1,2.9c0.7,0.3,1.3,0.5,2,0.7c0.7,0.2,1.3,0.4,2,0.8L108.3,37.3z M108.3,44.9
			c-0.2-1-0.2-2-0.1-2.9c0.1-0.9,0.1-1.9-0.2-2.9c-0.7-0.4-1.4-0.6-2-0.7c-0.7-0.1-1.3-0.4-1.9-0.7l-0.4,0.4v5.6
			c0.6,0.5,1.3,0.8,2.1,1c0.8,0.2,1.5,0.4,2.1,0.8L108.3,44.9z M108.3,52.7c-0.2-1.1-0.2-2.1-0.1-3c0.1-0.9,0.1-1.9-0.2-2.9
			c-0.7-0.2-1.4-0.5-2-0.8c-0.7-0.3-1.3-0.5-1.9-0.8l-0.4,0.3v5.5c0.2,0.4,0.4,0.6,0.7,0.7c0.6,0.1,1.2,0.3,1.7,0.5
			c0.5,0.2,1.1,0.4,1.7,0.6L108.3,52.7z M108.3,60.5c-0.2-1-0.2-2,0-3.1c0.1-1,0-2-0.4-3c-0.8-0.1-1.5-0.3-2.3-0.7
			c-0.7-0.3-1.4-0.5-1.9-0.5v5.5l0.4,0.6c0.6,0.3,1.2,0.5,1.8,0.7c0.6,0.1,1.2,0.4,1.8,0.8L108.3,60.5z M108.3,68.2
			c-0.2-1.1-0.2-2.1-0.1-3c0.1-0.9,0.1-1.9-0.2-2.9c-0.9-0.4-1.7-0.7-2.4-0.9c-0.6-0.2-1.1-0.4-1.6-0.5l-0.4,0.2v5.6
			c0.3,0.4,0.5,0.7,0.7,0.7c0.7,0.1,1.8,0.4,3.4,1.1L108.3,68.2z M108.3,75.8v-5.2l-0.5-0.7c-0.8-0.2-1.5-0.4-2-0.6
			c-0.6-0.2-1.1-0.4-1.6-0.7l-0.4,0.3c0.1,1,0.1,2,0,3c-0.1,1,0,1.9,0.1,2.9c0.7,0.3,1.3,0.5,2,0.7c0.7,0.2,1.3,0.4,2,0.8
			L108.3,75.8z M108.3,83.8v-5.6c-0.2-0.4-0.4-0.6-0.7-0.7c-0.6-0.1-1.2-0.3-1.8-0.5c-0.6-0.2-1.1-0.4-1.5-0.5l-0.6,0.1v5.6l0.4,0.5
			c0.6,0.3,1.2,0.5,1.8,0.7c0.6,0.1,1.2,0.3,1.8,0.6L108.3,83.8z M108.3,91.5c-0.2-1.1-0.2-2.1-0.1-3c0.1-0.9,0.1-1.9-0.2-2.9
			c-0.7-0.4-1.4-0.6-2-0.8c-0.7-0.2-1.3-0.4-1.9-0.7l-0.4,0.3c0.1,1.1,0.1,2.1,0,3.1c-0.1,1,0,1.9,0.1,2.8c0.7,0.4,1.3,0.6,2,0.8
			c0.7,0.1,1.3,0.4,2,0.8L108.3,91.5z M110.5,29.5c0.7-0.1,1.2-0.3,1.8-0.6c-0.5-0.2-1.1-0.4-1.6-0.5c-0.6-0.1-1.1-0.3-1.6-0.5
			c-0.8,0.2-1.6,0.4-2.2,0.6c-0.6,0.2-1.1,0.4-1.4,0.6c0.5,0.1,1,0.2,1.5,0.4c0.5,0.2,1.1,0.5,1.8,0.8
			C109.3,29.8,109.9,29.5,110.5,29.5z M114,97.1c-0.1-0.9-0.1-1.7,0-2.6c0.1-0.8,0-1.7-0.2-2.6l-0.3-0.2c-0.5,0.3-1.1,0.5-1.7,0.7
			c-0.7,0.2-1.3,0.4-1.9,0.6l-0.4,0.5v2l0.4,0.5c0.7,0.3,1.3,0.5,1.9,0.7c0.6,0.1,1.2,0.4,1.7,0.8L114,97.1z M116.4,27.5
			c0.7-0.1,1.3-0.3,1.6-0.7c-1.2-0.4-2.3-0.6-3.5-0.6c-1.1-0.1-2.3,0.2-3.4,0.8c0.6,0.4,1.2,0.6,1.7,0.6c0.6,0.1,1.1,0.3,1.7,0.6
			C115.1,27.8,115.7,27.6,116.4,27.5z M121.5,87.8c0.4-0.2,0.8-0.4,1.2-0.4c0.4-0.1,0.7-0.2,1-0.5c-0.5-0.1-1-0.3-1.4-0.4
			c-0.4-0.2-0.8-0.2-1.2-0.2c0.1,0.4,0.1,0.7,0,0.9c-0.1,0.3,0,0.5,0.2,0.7H121.5z M127.9,85.5c0.7-0.1,1.2-0.3,1.8-0.4
			c-0.5-0.3-1-0.5-1.5-0.6c-0.4-0.1-0.9-0.3-1.5-0.6c-0.7,0-1.3,0.1-1.9,0.4c-0.6,0.3-1.2,0.5-1.9,0.6l-0.2,0.3
			c0.9,0.2,2.1,0.5,3.5,1.1C126.7,85.9,127.3,85.6,127.9,85.5z M131.4,60.5c-0.1-1-0.1-2,0-3.1c0.1-1,0-2-0.5-3
			c-0.7-0.2-1.4-0.5-2-0.7c-0.6-0.2-1.1-0.4-1.6-0.5l-0.4,0.1c0.1,1.1,0.1,2.1,0,3.1c-0.1,1,0,1.9,0.2,2.8c0.7,0.3,1.4,0.6,2,0.8
			s1.2,0.5,1.8,0.8L131.4,60.5z M131.4,76c-0.1-1.1-0.1-2.1,0-3.1c0.1-1,0-2-0.5-3c-0.6-0.2-1.2-0.4-1.8-0.6
			c-0.6-0.2-1.2-0.4-1.7-0.6l-0.4,0.2c0.1,1,0.1,2,0,3c-0.1,1,0,1.9,0.2,2.9c0.7,0.2,1.4,0.5,2,0.7c0.6,0.2,1.2,0.5,1.8,0.8
			L131.4,76z M131.4,29.6c-0.1-1-0.1-2,0-3.1c0.1-1,0-2.1-0.5-3.1c-0.4-0.1-0.9-0.3-1.5-0.4c-0.6-0.2-1.3-0.4-2.1-0.6l-0.4,0.1v5.6
			c0.5,0.5,1.2,0.8,1.9,1c0.7,0.2,1.4,0.4,2,0.7L131.4,29.6z M131.4,37.3V32l-0.4-0.7c-0.6-0.2-1.2-0.4-1.8-0.6s-1.2-0.4-1.7-0.6
			l-0.4,0.2v5.6c0.1,0.1,0.2,0.2,0.4,0.4c0.1,0.1,0.2,0.2,0.4,0.3c0.6,0.1,1.2,0.2,1.7,0.5c0.5,0.3,1.1,0.5,1.6,0.7L131.4,37.3z
			 M131.4,44.9c-0.1-1-0.1-2,0-2.9c0.1-0.9,0-1.9-0.3-2.9c-1.8-0.8-3.2-1.2-4.2-1.2v5.6l0.4,0.5c1.6,0.6,2.8,1.1,3.6,1.4L131.4,44.9
			z M131.4,52.7v-5.3l-0.4-0.7c-0.6-0.2-1.2-0.4-1.8-0.6s-1.2-0.4-1.7-0.6l-0.4,0.2v5.5c0.2,0.4,0.5,0.7,0.7,0.7
			c0.6,0.1,1.2,0.3,1.7,0.5c0.5,0.2,1.1,0.4,1.6,0.6L131.4,52.7z M131.4,68.3c-0.1-1-0.1-2,0-3.1c0.1-1,0-2.1-0.5-3.1
			c-0.6-0.2-1.2-0.4-1.8-0.6s-1.2-0.4-1.7-0.6l-0.4,0.2v5.6l0.4,0.5c0.6,0.3,1.2,0.5,1.8,0.6c0.6,0.1,1.2,0.3,1.7,0.7L131.4,68.3z
			 M131.4,83.8c-0.1-1.1-0.1-2.1,0-3.2c0.1-1,0-2.1-0.5-3.1c-0.6-0.2-1.2-0.4-1.8-0.6c-0.6-0.2-1.2-0.4-1.7-0.5l-0.4,0.3v5.5
			c0.5,0.5,1.2,0.8,1.9,0.9c0.7,0.1,1.4,0.3,2,0.8L131.4,83.8z M133.8,21.8c0.6-0.3,1.2-0.5,1.7-0.7c-0.7-0.1-1.3-0.3-1.9-0.5
			c-0.6-0.2-1.2-0.4-1.6-0.6c-0.5,0.1-0.9,0.2-1.2,0.4c-0.4,0.2-0.7,0.3-1.1,0.3c-0.2,0.2-0.4,0.3-0.6,0.3c-0.2,0-0.4,0.1-0.5,0.1
			c0.6,0.2,1.2,0.4,1.7,0.6c0.5,0.2,1.1,0.4,1.7,0.6C132.6,22.2,133.2,22.1,133.8,21.8z M139.5,19.8c0.5-0.2,1.1-0.4,1.6-0.7
			c-0.7-0.3-1.3-0.5-1.8-0.6c-0.6-0.1-1.1-0.3-1.7-0.5c-0.5,0.3-1.1,0.5-1.7,0.7c-0.6,0.2-1.1,0.4-1.4,0.6c0.9,0.2,2,0.6,3.3,1.2
			C138.4,20.3,139,20,139.5,19.8z"/>
		<path class="st5" d="M149.3,99.9c-0.9-0.2-1.9-0.6-2.8-1V28.8c5.6-1.5,11.2-3.6,16.8-6.2c5.7-2.7,11.4-3.6,17-2.7
			c0.3,0.2,0.6,0.3,0.8,0.4c0.2,0.1,0.5,0.2,0.9,0.4l0.4,0.5V24c0.1,0.5,0.4,0.8,0.8,1c0.7,0.1,1.4,0.3,2.1,0.5
			c0.8,0.2,1.6,0.6,2.6,1c0.2,3,0.3,6,0.3,9c-0.1,3,0,6,0.1,9.1v5.7l-0.4,0.4c-0.8,0.2-1.6,0.4-2.4,0.8c-0.8,0.4-1.6,0.6-2.4,0.7
			c-0.2,0.1-0.4,0.3-0.7,0.7v2l0.3,0.5c0.7,0.5,1.5,0.9,2.4,1c1,0.1,1.9,0.4,2.8,1c0.1,4.1,0.2,8.1,0.1,12c0,3.9,0,7.9,0,12l-1,0.7
			c-0.7,0-1.5,0.2-2.2,0.5c-0.8,0.3-1.5,0.6-2.2,0.9c-0.3,1.2-0.4,2.4-0.3,3.7c0.1,1.3,0.1,2.5,0,3.8c-5,1.9-10.1,3.7-15.1,5.3
			c-5,1.7-10.1,3.2-15.2,4.7h-0.1C151.1,100.5,150.2,100.1,149.3,99.9z M151.9,68.5c0.2-1.1,0.3-2.1,0.3-3c-0.1-0.9-0.1-1.9,0-2.8
			l-0.4-0.6c-0.7-0.2-1.3-0.4-1.9-0.5c-0.6-0.1-1.2-0.3-1.7-0.5l-0.4,0.1c0.1,1.1,0.1,2.1,0,3.1c-0.1,1,0,1.9,0.2,2.9
			c0.7,0.4,1.3,0.6,2,0.8C150.5,67.9,151.1,68.2,151.9,68.5L151.9,68.5z M152.2,83.6c-0.1-1-0.1-2,0-3.1c0.1-1,0-2-0.4-3
			c-0.9-0.3-1.6-0.5-2.3-0.7c-0.6-0.2-1.1-0.3-1.4-0.4l-0.4,0.2c0.1,1,0.1,2,0,3c-0.1,1,0,1.9,0.2,2.9c0.7,0.2,1.3,0.5,2,0.7
			c0.7,0.2,1.3,0.5,2,0.8L152.2,83.6z M152.2,99.1c-0.1-1-0.1-2,0-3.1c0.1-1,0-2-0.4-3c-0.7-0.1-1.3-0.3-1.9-0.5
			c-0.6-0.2-1.2-0.4-1.7-0.6l-0.4,0.1c0.1,1.1,0.1,2.1,0,3.1c-0.1,1,0,2,0.2,2.8c0.9,0.3,1.7,0.6,2.3,0.8c0.7,0.3,1.2,0.5,1.6,0.7
			L152.2,99.1z M152.2,37.2c-0.1-1.1-0.1-2.1,0-3c0.1-0.9,0-1.9-0.2-2.8c-0.8-0.3-1.5-0.6-2.1-0.8c-0.7-0.3-1.3-0.4-2-0.4V36
			c0.5,0.4,1.2,0.7,1.9,0.8c0.7,0.1,1.4,0.3,2,0.8L152.2,37.2z M152.2,45v-5.3l-0.4-0.7c-0.7-0.3-1.3-0.5-1.9-0.8
			c-0.6-0.2-1.2-0.4-1.7-0.5l-0.4,0.2v5.6l0.4,0.4c0.6,0.1,1.2,0.3,1.8,0.6c0.6,0.3,1.2,0.5,1.8,0.8L152.2,45z M152.2,52.6
			c-0.1-1.1-0.1-2.1,0-3c0.1-0.9,0-1.9-0.2-2.9c-0.7-0.2-1.3-0.4-1.8-0.7c-0.6-0.3-1.1-0.5-1.6-0.6h-0.7v5.9
			c0.5,0.4,1.2,0.6,1.9,0.8c0.7,0.1,1.4,0.4,2,0.8L152.2,52.6z M152.2,60.3c-0.1-1.1-0.1-2.1,0-3c0.1-0.9,0-1.8-0.2-2.8
			c-0.8-0.2-1.5-0.4-2.1-0.8c-0.7-0.4-1.3-0.5-2-0.5c0.1,1.1,0.1,2.1,0,3.2c-0.1,1,0,2,0.2,3c0.9,0.3,1.6,0.6,2.3,0.8
			c0.6,0.2,1.1,0.4,1.4,0.6L152.2,60.3z M152.2,76c-0.1-1-0.1-2,0-3.1c0.1-1,0-2.1-0.2-3.1c-0.8-0.1-1.5-0.4-2.1-0.7
			c-0.7-0.4-1.3-0.5-2-0.5v5.9c0.5,0.4,1.2,0.7,1.9,0.8c0.7,0.1,1.4,0.4,2,0.8L152.2,76z M152.2,91.5c-0.1-1.1-0.1-2.1,0-3.2
			c0.1-1,0-2.1-0.2-3.1c-0.8-0.1-1.5-0.4-2.1-0.7c-0.7-0.4-1.3-0.5-2-0.5c0.1,1.1,0.1,2.2,0,3.3c-0.1,1.1,0,2.1,0.2,2.8
			c0.7,0.4,1.3,0.6,1.9,0.7c0.6,0.1,1.2,0.3,1.8,0.8L152.2,91.5z M154.5,29.6c0.6-0.2,1.1-0.4,1.7-0.8c-0.7-0.1-1.3-0.3-1.8-0.5
			c-0.6-0.2-1.1-0.4-1.7-0.6c-0.2,0.2-0.5,0.3-0.8,0.4c-0.3,0.1-0.5,0.1-0.8,0.3c-0.4,0-0.7,0.1-1,0.2c-0.3,0.1-0.6,0.2-0.8,0.2
			c0.6,0.2,1.2,0.5,1.7,0.7c0.5,0.2,1.1,0.4,1.6,0.6C153.3,29.9,153.9,29.7,154.5,29.6z M160.3,27.5c0.5-0.1,1.1-0.3,1.6-0.6
			c-0.6-0.3-1.2-0.5-1.8-0.6c-0.6-0.1-1.2-0.3-1.7-0.5c-0.6,0.3-1.2,0.5-1.8,0.7c-0.6,0.2-1.1,0.4-1.4,0.5c0.6,0.1,1.2,0.3,1.7,0.6
			c0.5,0.3,1.1,0.5,1.6,0.6C159.2,27.8,159.8,27.6,160.3,27.5z M164.4,26.2c0.6-0.2,1.2-0.4,1.7-0.6c0.5-0.2,1.1-0.4,1.7-0.4
			l0.1-0.3c-2.2-0.9-4.4-1-6.7-0.2l-0.2,0.4C161.7,25.2,162.8,25.6,164.4,26.2L164.4,26.2z M165.5,52.9c0.7-0.4,1.4-0.6,2.2-0.8
			c0.7-0.1,1.3-0.5,1.8-1.1V34.2l-0.3-0.4c-0.8,0.4-1.5,0.6-2.1,0.8c-0.7,0.2-1.3,0.4-2,0.8c0.1,3,0.1,6,0,8.9
			c-0.1,2.9,0,5.8,0.2,8.7H165.5z M165.3,56.8c0.4-0.2,0.8-0.4,1.2-0.5c0.4-0.1,0.8-0.2,1.2-0.3c-0.4-0.2-0.7-0.4-1.1-0.5
			c-0.4-0.1-0.7-0.2-1-0.4l-0.5,0.2c0.1,0.2,0.1,0.5,0,0.8C165,56.4,165,56.6,165.3,56.8L165.3,56.8z M165.3,84
			c0.8-0.4,1.5-0.6,2.2-0.8c0.7-0.2,1.3-0.5,2-0.8V65l-0.4-0.3c-0.5,0.2-1.1,0.5-1.7,0.7c-0.7,0.2-1.3,0.4-1.8,0.6l-0.4,0.4
			c0.1,3,0.1,5.9,0,8.8C165,78,165,81,165.3,84L165.3,84z M165.3,87.7c0.4-0.2,0.8-0.3,1.2-0.4c0.4-0.1,0.8-0.2,1.2-0.4
			c-0.4-0.2-0.7-0.4-1.1-0.5c-0.4-0.1-0.7-0.2-1-0.3H165c0.1,0.4,0.1,0.7,0,0.9C165,87.3,165,87.5,165.3,87.7L165.3,87.7z
			 M170.4,24.2c0.5-0.2,1.1-0.4,1.7-0.6c0.6-0.2,1.2-0.4,1.7-0.4c-1.1-0.5-2.1-0.8-3.2-1c-1.1-0.2-2.1,0-3,0.6
			c-0.3,0.1-0.6,0.2-1,0.4c0.7,0.1,1.3,0.3,1.9,0.5c0.6,0.2,1.2,0.5,1.8,0.8L170.4,24.2z M172,85.5c0.7,0,1.3-0.3,1.6-0.8
			c-0.7-0.1-1.3-0.2-1.9-0.5c-0.6-0.3-1.2-0.4-1.7-0.4c-0.6,0.3-1.2,0.5-1.7,0.6c-0.5,0.1-1,0.3-1.5,0.5c0.6,0.4,1.2,0.6,1.7,0.6
			c0.6,0.1,1.1,0.2,1.7,0.5C170.7,85.8,171.3,85.6,172,85.5z M171.7,54.6c0.6-0.1,1.1-0.3,1.6-0.4l0.3-0.3c-1.1-0.4-2.3-0.6-3.5-0.8
			c-1.2-0.1-2.3,0.2-3.3,1c0.7,0.1,1.2,0.3,1.7,0.5c0.5,0.2,1.1,0.4,1.6,0.7C170.7,55,171.2,54.7,171.7,54.6z M175.4,75.7v-5.2
			l-0.4-0.6c-0.7-0.2-1.3-0.4-1.9-0.6c-0.6-0.2-1.2-0.4-1.7-0.6l-0.6,0.2c0.1,1.1,0.1,2.1,0,3c-0.1,0.9,0,1.9,0.2,2.8l0.5,0.4
			c0.5,0.1,1.1,0.2,1.6,0.4c0.6,0.2,1.1,0.5,1.7,0.8L175.4,75.7z M175.4,37.2c-0.1-0.9-0.1-1.8,0-2.6c0.1-0.9,0-1.7-0.1-2.5
			l-0.4-0.2c-0.7,0.2-1.3,0.5-1.9,0.8c-0.6,0.3-1.2,0.4-1.7,0.5l-0.4,0.6v2c0.2,0.3,0.5,0.5,0.7,0.6c0.5,0.1,1,0.2,1.6,0.4
			c0.6,0.2,1.2,0.5,1.8,0.8L175.4,37.2z M175.4,45v-5.3l-0.4-0.7c-0.8-0.2-1.5-0.4-2.3-0.8c-0.7-0.3-1.4-0.5-2-0.5v5.6l0.4,0.5
			c0.6,0.3,1.2,0.5,1.9,0.7c0.7,0.1,1.2,0.4,1.8,0.8L175.4,45z M175.4,52.6c-0.1-1.1-0.1-2.1,0-3c0.1-0.9,0-1.9-0.3-2.9
			c-0.7-0.4-1.3-0.6-2-0.8c-0.7-0.1-1.3-0.3-1.9-0.6l-0.4,0.2v5.6c0.6,0.6,1.3,0.9,2.2,1.1c0.9,0.1,1.6,0.4,2.1,0.7L175.4,52.6z
			 M175.4,68.1c-0.1-0.9-0.1-1.8,0-2.6c0.1-0.9,0-1.7-0.1-2.5l-0.3-0.2c-0.7,0.4-1.5,0.6-2.2,0.8c-0.8,0.1-1.5,0.5-2,0.9
			c0.1,0.5,0.1,0.9,0,1.4c0,0.4,0.1,0.8,0.3,1.2c0.7,0.4,1.3,0.6,2,0.8c0.7,0.1,1.3,0.4,2,0.8L175.4,68.1z M175.4,83.5
			c-0.1-1-0.1-2,0-2.9c0.1-0.9,0-1.9-0.3-2.9c-0.7-0.4-1.3-0.6-2-0.7c-0.7-0.1-1.3-0.3-1.9-0.7l-0.4,0.3v5.5
			c0.7,0.5,1.4,0.9,2.1,1.1c0.8,0.2,1.5,0.4,2.1,0.8L175.4,83.5z M177.8,21.7c0.6-0.2,1.1-0.4,1.6-0.6c-2.8-1-5-1-6.7,0.1
			c0.4,0.1,0.9,0.3,1.5,0.5c0.6,0.2,1.2,0.5,1.9,0.8C176.6,22.1,177.1,21.8,177.8,21.7z M182.8,27.9c0.3-0.1,0.6-0.3,1-0.4
			c0.4-0.1,0.8-0.3,1.4-0.6c-0.4-0.2-0.7-0.3-1.1-0.3c-0.4,0-0.7-0.2-1-0.4l-0.6,0.1c0.1,0.4,0.1,0.7,0,0.9
			C182.5,27.5,182.5,27.7,182.8,27.9L182.8,27.9z M183.9,58.4c0.4,0,0.7-0.1,1.1-0.3l0.3-0.3c-0.4-0.2-0.7-0.3-1.1-0.3
			c-0.4,0-0.7-0.2-1-0.4l-0.6,0.2c0.1,0.3,0.1,0.6,0,0.8c-0.1,0.2,0,0.5,0.2,0.7C183.1,58.5,183.5,58.4,183.9,58.4z"/>
		<path class="st6" d="M267,99.8c-0.9-0.2-1.9-0.5-2.9-1c0-4.5,0-9,0-13.5c0-4.5,0-9,0-13.6c-2.6,1.4-5.2,1.7-7.9,0.7
			c-1.4-0.5-2.7-0.9-4.1-1.4c-1.4-0.5-2.7-0.9-4.1-1.4l-0.3,0.1c-0.2,3.2-0.3,6.4-0.2,9.5c0.1,3.2,0.1,6.3-0.1,9.5
			c-0.1,0.1-0.2,0.2-0.4,0.3c-0.2,0.1-0.4,0.2-0.7,0.4c-3.7,1.7-7.6,1.6-11.6-0.4l-0.3-0.4V28.2V17.1c0.4-0.2,0.7-0.5,1.1-0.7
			c3.5-1.6,7.3-1.4,11.3,0.4l0.4,0.5v6.8c0.1,0.5,0.4,0.8,0.8,1c0.9,0.1,2.5,0.6,4.8,1.6l0.3,0.4v6.9l0.3,0.5
			c1.4,0.9,2.8,1.4,4.2,1.4l0.4-0.4V33c0.1-0.1,0.2-0.1,0.3-0.3c0.1-0.1,0.2-0.3,0.5-0.4c0.7-0.1,1.4-0.2,2.2-0.5
			c0.8-0.3,1.5-0.6,2.3-0.9c0.2-0.2,0.4-0.5,0.6-0.8v-2.9l0.3-0.4c3.9-2.2,8-2.2,12.5,0l0.3,0.4L277,93.8v4.7
			c-0.2,0.4-0.5,0.7-0.9,0.9c-1,0-2,0.3-3,0.8c-1,0.6-2,0.8-3,0.8h-0.3C268.9,100.4,268,100.1,267,99.8z M240.5,25.8v-5.4l-0.4-0.7
			c-0.7-0.2-1.3-0.4-2-0.6c-0.7-0.2-1.2-0.4-1.8-0.6l-0.4,0.2v5.7c0.3,0.4,0.5,0.7,0.7,0.7c0.7,0.1,1.2,0.2,1.8,0.4
			c0.5,0.2,1.1,0.4,1.7,0.6L240.5,25.8z M240.5,33.8c-0.1-1.1-0.1-2.1,0-3.2c0.1-1.1,0-2.1-0.4-3.1c-0.7-0.2-1.3-0.4-2-0.5
			c-0.7-0.1-1.2-0.3-1.8-0.5l-0.4,0.1c0.1,1.1,0.1,2.1,0,3.1c-0.1,1,0,2,0.1,2.8c0.7,0.3,1.4,0.6,2,0.8c0.7,0.3,1.3,0.5,2,0.8
			L240.5,33.8z M240.5,41.6v-5.4l-0.4-0.7c-0.7-0.2-1.3-0.4-2-0.7c-0.7-0.3-1.2-0.5-1.8-0.6l-0.4,0.1V40c0.2,0.4,0.5,0.7,0.7,0.7
			c0.7,0.1,1.2,0.3,1.8,0.5c0.5,0.2,1.1,0.4,1.7,0.6L240.5,41.6z M240.5,49.6c-0.1-1.1-0.1-2.1,0-3.2c0.1-1,0-2.1-0.4-3.2
			c-0.7-0.1-1.3-0.3-2-0.5c-0.7-0.2-1.2-0.4-1.8-0.6l-0.4,0.2c0.1,1.1,0.1,2.1,0,3.1c-0.1,1,0,2,0.1,2.8c0.7,0.3,1.4,0.6,2,0.8
			c0.7,0.2,1.3,0.5,2,0.8L240.5,49.6z M240.5,57.5c-0.1-1-0.1-2,0-3.1c0.1-1.1,0-2.1-0.4-3.1c-0.7-0.2-1.3-0.5-2-0.7
			c-0.7-0.2-1.2-0.4-1.8-0.5l-0.4,0.1v5.7l0.4,0.6c0.7,0.3,1.3,0.5,1.9,0.6c0.6,0.1,1.2,0.3,1.8,0.7L240.5,57.5z M240.5,65.4
			c-0.1-1.1-0.1-2.1,0-3.2c0.1-1.1,0-2.1-0.4-3.1c-0.7-0.1-1.3-0.3-2-0.5c-0.7-0.2-1.2-0.4-1.8-0.6l-0.4,0.2c0.1,1.1,0.1,2.1,0,3.1
			c-0.1,1,0,1.9,0.1,2.9c0.7,0.3,1.4,0.6,2,0.8c0.7,0.3,1.3,0.5,2,0.8L240.5,65.4z M240.5,73.3c-0.1-1.1-0.1-2.1,0-3.2
			c0.1-1,0-2.1-0.4-3.1c-0.7-0.2-1.3-0.5-2-0.7c-0.7-0.2-1.2-0.4-1.8-0.6l-0.4,0.4v5.6c0.6,0.5,1.2,0.9,2,1c0.7,0.1,1.4,0.4,2.1,0.7
			L240.5,73.3z M240.5,81.2v-5.4l-0.4-0.7c-1.5-0.6-2.7-1-3.7-1.2l-0.4,0.1v5.8l0.4,0.5c0.7,0.1,1.3,0.3,1.9,0.6
			c0.6,0.3,1.2,0.5,1.8,0.7L240.5,81.2z M240.5,89.1v-5.7l-0.4-0.6c-0.7-0.2-1.3-0.4-2-0.6c-0.7-0.2-1.2-0.4-1.8-0.4l-0.4,0.1v5.8
			c0.6,0.4,1.2,0.7,2,0.9c0.7,0.2,1.4,0.5,2.1,0.8L240.5,89.1z M242.9,17.9c0.7,0,1.3-0.3,1.6-0.7c-0.7-0.1-1.3-0.3-1.9-0.6
			c-0.6-0.3-1.2-0.4-1.8-0.4c-0.5,0.3-1.1,0.5-1.6,0.6c-0.6,0.1-1.1,0.3-1.6,0.5c0.6,0.2,1.2,0.4,1.8,0.6c0.6,0.2,1.2,0.4,1.8,0.7
			C241.6,18.2,242.2,17.9,242.9,17.9z M246.5,35.7c-0.2-1.1-0.2-2.1-0.1-3.1c0.1-1,0.1-2-0.2-3c-0.8-0.4-1.5-0.6-2.1-0.7
			c-0.7-0.1-1.3-0.3-1.9-0.6l-0.4,0.3c0.2,1.1,0.2,2.1,0,3c-0.1,0.9-0.1,1.9,0.2,2.9c0.7,0.4,1.4,0.6,2,0.8c0.7,0.2,1.3,0.4,2,0.8
			L246.5,35.7z M246.5,43.6v-5.4l-0.4-0.6c-0.7-0.3-1.3-0.5-1.9-0.7c-0.6-0.2-1.2-0.4-1.8-0.6l-0.5,0.2c0.1,1.1,0.1,2.1,0,3.1
			c-0.1,1,0,2,0.2,2.8c0.7,0.4,1.3,0.6,2,0.8c0.7,0.1,1.3,0.4,1.9,0.8L246.5,43.6z M248.8,27.8c0.5-0.1,1.1-0.4,1.7-0.8
			c-0.7-0.2-1.3-0.4-1.9-0.5c-0.6-0.1-1.2-0.3-1.7-0.5c-0.6,0.3-1.2,0.5-1.8,0.7c-0.6,0.2-1.1,0.4-1.5,0.5c0.6,0.1,1.2,0.3,1.7,0.6
			c0.5,0.3,1.1,0.5,1.7,0.6C247.6,28.2,248.2,28,248.8,27.8z M252.5,45.6c-0.2-1.1-0.2-2.1,0-3c0.1-0.9,0.1-1.9-0.2-2.9
			c-0.7-0.3-1.4-0.6-2-0.8c-0.7-0.2-1.3-0.5-2-0.8l-0.4,0.3c0.1,1.1,0.1,2.1,0,3.1c-0.1,1,0,2,0.2,2.9c0.7,0.4,1.4,0.6,2,0.8
			c0.7,0.1,1.3,0.4,2,0.8L252.5,45.6z M252.5,53.6c-0.2-1.1-0.2-2.1,0-3.2s0-2.1-0.4-3.1c-0.8-0.1-1.5-0.3-2.2-0.7
			c-0.7-0.3-1.4-0.5-2.1-0.5v5.8l0.4,0.5c0.7,0.2,1.3,0.5,1.9,0.7c0.6,0.2,1.2,0.4,1.8,0.6L252.5,53.6z M252.5,61.4
			c-0.2-1.1-0.2-2.1,0-3.1c0.1-1,0.1-2-0.2-3c-0.7-0.2-1.4-0.5-2-0.7c-0.7-0.2-1.3-0.5-2-0.8l-0.4,0.3v5.7l0.4,0.5
			c1.3,0.3,2.5,0.7,3.7,1.3L252.5,61.4z M252.5,69.3c-0.2-1.1-0.2-2.1,0-3c0.1-0.9,0.1-1.9-0.2-2.9c-0.7-0.4-1.4-0.6-2-0.8
			c-0.7-0.1-1.3-0.4-2-0.7l-0.4,0.2v5.8c0.7,0.5,1.4,0.9,2.2,1.1c0.8,0.2,1.5,0.4,2.1,0.7L252.5,69.3z M254.7,37.7
			c0.7-0.1,1.3-0.3,1.9-0.6c-2.6-1.3-4.9-1.3-7,0.1c0.5,0.1,1,0.2,1.6,0.4c0.6,0.2,1.2,0.5,1.9,0.8
			C253.5,38.1,254.1,37.8,254.7,37.7z M258.3,47.6c-0.2-1.1-0.2-2.1,0-3.2c0.1-1,0-2.1-0.4-3.1c-0.6-0.1-1.3-0.3-1.9-0.5
			c-0.6-0.2-1.2-0.4-1.7-0.6l-0.4,0.1c0,1.1,0,2.2-0.1,3.2c-0.1,1,0,2,0.2,2.8c0.7,0.3,1.4,0.6,2,0.8c0.6,0.2,1.3,0.5,1.9,0.8
			L258.3,47.6z M258.3,55.6c-0.2-1-0.2-2,0-3.1c0.1-1.1,0-2.1-0.4-3.2c-0.7-0.2-1.3-0.4-1.9-0.6c-0.6-0.2-1.2-0.4-1.7-0.6l-0.4,0.3
			v5.8c0.5,0.5,1.2,0.8,1.9,0.9c0.7,0.1,1.4,0.4,2,0.8L258.3,55.6z M258.3,63.4V58l-0.4-0.7c-1.1-0.5-2.3-0.9-3.6-1.2l-0.4,0.2v5.7
			l0.4,0.5c0.6,0.1,1.2,0.2,1.8,0.5c0.6,0.3,1.2,0.5,1.8,0.7L258.3,63.4z M258.3,71.4v-5.7l-0.4-0.5c-0.7-0.2-1.3-0.5-1.9-0.7
			c-0.6-0.2-1.2-0.4-1.7-0.5l-0.4,0.2v5.7c0.5,0.5,1.2,0.8,1.9,1c0.7,0.2,1.4,0.4,2,0.7L258.3,71.4z M258.3,39.7
			c-0.1-0.3-0.1-0.6,0-0.8c0.1-0.2,0-0.5-0.1-0.7h-0.4c-0.4,0.2-0.8,0.4-1.2,0.5c-0.4,0.2-0.7,0.3-1.1,0.4c0.4,0.1,0.8,0.3,1.2,0.4
			c0.4,0.2,0.7,0.3,1.1,0.4L258.3,39.7z M264.2,41.7c-0.1-1-0.1-2,0-3.1c0.1-1.1,0-2.1-0.4-3.1c-0.7-0.2-1.3-0.5-1.9-0.7
			c-0.6-0.2-1.2-0.4-1.7-0.6l-0.6,0.1V40c0.2,0.4,0.5,0.7,0.7,0.7c1.2,0.2,2.4,0.6,3.5,1.2L264.2,41.7z M264.2,49.6
			c-0.1-1.1-0.1-2.1,0-3.2c0.1-1,0-2.1-0.4-3.2c-0.8-0.1-1.5-0.3-2.3-0.7c-0.7-0.3-1.4-0.5-2-0.5v5.8c0.3,0.4,0.5,0.7,0.7,0.7
			c0.6,0.1,1.2,0.2,1.7,0.5c0.6,0.3,1.1,0.5,1.7,0.8L264.2,49.6z M264.2,33.3c-0.1-0.3-0.1-0.6,0-0.8l-0.4-0.3
			c-0.4,0.3-0.8,0.5-1.2,0.5c-0.4,0-0.8,0.2-1.2,0.4c0.5,0.2,0.9,0.4,1.3,0.5c0.4,0.1,0.8,0.3,1.1,0.4
			C264.1,33.9,264.3,33.7,264.2,33.3z M270,35.9c-0.2-1.1-0.2-2.1,0-3.2c0.2-1.1,0.1-2.1-0.4-3.1c-0.8-0.1-1.6-0.3-2.3-0.7
			c-0.7-0.3-1.4-0.5-2.1-0.5v5.7l0.5,0.5c0.6,0.3,1.2,0.5,1.8,0.8c0.6,0.2,1.2,0.4,1.8,0.6L270,35.9z M270,43.6c-0.2-1-0.2-2,0-3
			c0.1-1,0.1-2-0.2-3c-0.7-0.2-1.4-0.5-2-0.8c-0.7-0.3-1.3-0.5-1.9-0.8l-0.5,0.3c0.1,1.1,0.1,2.1,0.1,3.1c-0.1,1,0,2,0.1,2.8
			c0.7,0.4,1.4,0.6,2,0.8s1.3,0.4,2,0.8L270,43.6z M270,51.5c-0.2-1.1-0.2-2.1,0-3c0.1-0.9,0.1-2-0.2-3c-0.7-0.4-1.4-0.6-2-0.7
			c-0.7-0.1-1.3-0.4-1.9-0.7l-0.5,0.4v5.7c0.7,0.5,1.4,0.9,2.2,1.1c0.8,0.2,1.5,0.4,2.2,0.8L270,51.5z M270,59.4c-0.2-1-0.2-2,0-3
			c0.1-1,0.1-2-0.2-3c-0.7-0.3-1.4-0.6-2-0.8s-1.3-0.5-1.9-0.7l-0.5,0.3v5.7c0.2,0.4,0.5,0.6,0.7,0.6c0.7,0.1,1.2,0.3,1.8,0.5
			c0.5,0.2,1.1,0.4,1.7,0.6L270,59.4z M270,67.4c-0.2-1.1-0.2-2.1,0-3.2c0.2-1.1,0.1-2.1-0.4-3.1c-0.8-0.1-1.6-0.3-2.4-0.6
			c-0.7-0.3-1.4-0.4-2-0.4v5.7l0.5,0.5c0.6,0.3,1.2,0.5,1.8,0.7c0.6,0.1,1.2,0.4,1.8,0.8L270,67.4z M270,75.2c-0.2-1.1-0.2-2.1,0-3
			c0.1-0.9,0.1-1.9-0.2-2.9c-0.7-0.3-1.4-0.6-2-0.8c-0.7-0.3-1.3-0.5-1.9-0.6l-0.5,0.1v5.7c0.2,0.4,0.4,0.6,0.7,0.7
			c0.4,0.1,0.9,0.3,1.5,0.4c0.6,0.2,1.2,0.4,2,0.7L270,75.2z M270,83v-5.4l-0.5-0.7c-0.7-0.1-1.3-0.3-1.9-0.5
			c-0.6-0.2-1.2-0.5-1.7-0.8l-0.5,0.3c0.1,1.1,0.1,2.1,0.1,3.1c-0.1,1,0,2,0.1,2.8c0.7,0.4,1.4,0.7,2,0.8s1.3,0.4,2,0.8L270,83z
			 M270,90.8v-5.3c-0.3-0.5-0.5-0.7-0.7-0.8c-0.5-0.1-1.1-0.2-1.8-0.5c-0.7-0.3-1.2-0.5-1.6-0.6l-0.6,0.1v5.7l0.5,0.5
			c0.6,0.4,1.2,0.6,1.8,0.7c0.6,0.1,1.2,0.3,1.8,0.6L270,90.8z M270,99.1c-0.2-1.1-0.2-2.1,0-3c0.1-0.9,0.1-2-0.2-3
			c-0.7-0.4-1.4-0.6-2-0.8c-0.7-0.2-1.3-0.4-1.9-0.7l-0.5,0.3c0.1,1.1,0.1,2.1,0.1,3.1c-0.1,1,0,2,0.1,2.8c0.7,0.4,1.4,0.6,2,0.8
			c0.7,0.2,1.3,0.4,2,0.8L270,99.1z M272.5,27.8c0.6-0.3,1.2-0.5,1.8-0.7c-0.7-0.1-1.3-0.2-1.9-0.4s-1.2-0.4-1.8-0.6
			c-1.1,0.6-2.3,0.9-3.4,1.1c0.6,0.2,1.2,0.5,1.7,0.7c0.5,0.2,1.1,0.4,1.7,0.6C271.3,28.3,271.9,28.1,272.5,27.8z"/>
		<path class="st7" d="M282.1,100c-0.9-0.2-1.9-0.6-2.8-1.2V43.9c0.8-0.4,1.7-0.7,2.6-0.9c0.9-0.2,1.8-0.5,2.8-0.9l0.5-0.8v-6.7
			l0.3-0.4c0.6-0.3,1.3-0.6,2.1-0.8c0.8-0.3,1.8-0.5,2.8-0.8c0.2-0.2,0.4-0.5,0.6-0.8v-7c0.2,0,0.3-0.1,0.4-0.2
			c0.1-0.1,0.3-0.3,0.6-0.5c1.4-0.3,2.8-0.7,4.3-1.1c1.4-0.4,2.8-0.9,4.3-1.5c2.9-1.1,5.8-0.7,8.7,1.1c0.1,0.5,0.1,1,0.1,1.6
			c-0.1,0.6,0,1.2,0.1,1.6l0.3,0.6c0.7,0.5,1.5,0.8,2.5,1c0.9,0.2,1.9,0.5,2.8,1l0.4,0.4v3.1l0.4,0.6c0.8,0.2,1.6,0.5,2.5,0.8
			s1.7,0.6,2.6,1l0.4,0.4v15.1c-0.1,6.8-0.1,13.5,0,20c0.1,6.5-0.1,13.1-0.4,19.7l-0.7,0.4c-2.8,0.6-5.7,1.5-8.6,2.7
			c-2.8,1.1-5.7,0.6-8.6-1.3c-0.2-3.1-0.3-6.2-0.1-9.3c0.1-3.1,0-6.3-0.3-9.5c-0.7,0.1-1.4,0.3-2,0.6c-0.7,0.3-1.4,0.5-2.1,0.8
			c-0.3,3.8-0.4,7.6-0.3,11.4c0.1,3.8,0.1,7.6-0.1,11.4l-0.2,0.4c-2.1,0.7-4.2,1.5-6.3,2.2s-4.2,1.3-6.3,1.7h-0.1
			C284,100.5,283,100.2,282.1,100z M285,52.8v-5.4l-0.4-0.6c-0.9-0.4-2.2-0.9-3.6-1.3l-0.4,0.2v5.6l0.4,0.5c0.6,0.1,1.2,0.3,1.8,0.6
			c0.6,0.3,1.2,0.5,1.8,0.7L285,52.8z M285,60.4c-0.1-1-0.1-2,0-2.9c0.1-0.9,0-1.9-0.2-2.8c-0.8-0.3-1.5-0.6-2.1-0.9
			c-0.7-0.3-1.3-0.4-2-0.4v5.9c0.5,0.4,1.2,0.6,1.9,0.8c0.7,0.2,1.4,0.4,2,0.7L285,60.4z M285,68.2v-5.6l-0.4-0.5
			c-0.7-0.1-1.3-0.2-1.9-0.5c-0.6-0.3-1.2-0.5-1.7-0.5l-0.4,0.1c0.1,1.1,0.1,2.1,0,3.1c-0.1,1,0,1.9,0.1,2.8c0.7,0.4,1.3,0.6,2,0.8
			c0.7,0.1,1.3,0.4,2,0.8L285,68.2z M284.7,76.3c0.2-1,0.3-2,0.3-2.9c-0.1-0.9-0.1-1.9,0-2.8l-0.4-0.6c-0.7-0.2-1.3-0.4-1.9-0.6
			c-0.6-0.1-1.2-0.3-1.7-0.5l-0.4,0.1c0.1,1.1,0.1,2.1,0,3.1c-0.1,1,0,1.9,0.1,2.8c0.7,0.4,1.3,0.6,2,0.8
			C283.3,75.7,284,75.9,284.7,76.3L284.7,76.3z M285,83.8c-0.1-1.1-0.1-2.1,0-3.2c0.1-1,0-2-0.2-3c-0.8-0.1-1.5-0.4-2.1-0.7
			c-0.7-0.4-1.3-0.5-2-0.5v5.9c0.5,0.4,1.2,0.7,1.9,0.8c0.7,0.1,1.4,0.4,2,0.8L285,83.8z M285,91.5c-0.1-1.1-0.1-2.1,0-3.1
			c0.1-1,0-2-0.4-3c-1.7-0.6-2.9-0.9-3.6-1.1l-0.4,0.1c0.1,1.1,0.1,2.1,0,3.1c-0.1,1,0,1.9,0.1,2.8c0.7,0.3,1.3,0.6,2,0.8
			c0.7,0.2,1.3,0.5,2,0.7L285,91.5z M285,99.3c-0.1-1.1-0.1-2.1,0-3.1c0.1-1,0-2-0.2-3c-0.8-0.1-1.5-0.4-2.1-0.7
			c-0.7-0.4-1.3-0.5-2-0.5c0.1,1.1,0.1,2.1,0,3.2c-0.1,1.1,0,2.1,0.2,2.9c0.6,0.4,1.2,0.6,1.8,0.7c0.6,0.1,1.2,0.3,1.8,0.7L285,99.3
			z M287.2,45c0.6-0.1,1.1-0.3,1.6-0.5l0.3-0.2c-1.1-0.4-2.3-0.6-3.5-0.8c-1.2-0.1-2.3,0.2-3.2,0.9c0.6,0.1,1.2,0.3,1.7,0.5
			c0.5,0.2,1.1,0.4,1.6,0.6C286.1,45.3,286.6,45.1,287.2,45z M290.9,43.1c-0.2-1.1-0.2-2.1,0-3.2c0.1-1,0-2-0.4-3
			c-0.8-0.3-1.5-0.5-2.1-0.8c-0.7-0.2-1.3-0.3-2-0.3v5.5c0.3,0.4,0.5,0.7,0.6,0.7c0.7,0.1,1.2,0.2,1.7,0.5c0.5,0.3,1.1,0.5,1.6,0.7
			L290.9,43.1z M293.1,35.3c0.6-0.1,1.1-0.4,1.6-0.7c-0.7-0.2-1.3-0.4-1.8-0.5c-0.6-0.1-1.1-0.3-1.6-0.5c-0.6,0.3-1.2,0.5-1.8,0.7
			c-0.6,0.1-1.1,0.3-1.4,0.6c0.6,0.1,1.2,0.2,1.7,0.5c0.5,0.3,1.1,0.5,1.6,0.7C292,35.7,292.6,35.4,293.1,35.3z M296.6,33.4v-5.2
			l-0.4-0.7c-1.8-0.6-3.1-1.1-3.6-1.4l-0.4,0.3v5.6l0.4,0.6c0.7,0.1,1.3,0.2,1.9,0.5c0.6,0.3,1.2,0.5,1.8,0.8L296.6,33.4z
			 M298.9,25.6c0.7-0.1,1.3-0.3,1.9-0.5c-2.6-1.2-4.9-1.2-6.8,0.1c0.9,0.2,2,0.6,3.3,1.2C297.7,25.9,298.3,25.7,298.9,25.6z
			 M300.4,60c0.8-0.2,1.4-0.6,2-1.2v-17l-0.3-0.4c-0.8,0.4-1.5,0.6-2.1,0.8c-0.7,0.2-1.3,0.5-2,0.8c0.1,3,0.1,6,0,8.9
			c-0.1,2.9,0,5.8,0.2,8.6C298.8,60.4,299.6,60.2,300.4,60z M298.1,64.6c0.4-0.3,0.8-0.5,1.2-0.6c0.4-0.1,0.8-0.2,1.2-0.3
			c-0.4-0.2-0.7-0.3-1.1-0.4c-0.4-0.1-0.7-0.2-1-0.4l-0.5,0.1c0.1,0.3,0.1,0.6,0,0.8C297.8,64.1,297.9,64.4,298.1,64.6L298.1,64.6z
			 M304.8,23.7c0.7,0,1.3-0.3,1.6-0.7c-1.2-0.4-2.3-0.6-3.5-0.7c-1.1-0.1-2.3,0.2-3.4,0.8c0.6,0.4,1.2,0.6,1.8,0.6
			c0.6,0.1,1.2,0.3,1.8,0.6C303.5,23.9,304.1,23.7,304.8,23.7z M304.6,62.3c0.6-0.1,1.1-0.2,1.6-0.4l0.3-0.3
			c-1.1-0.4-2.3-0.6-3.5-0.8c-1.2-0.1-2.3,0.2-3.3,1c0.7,0.1,1.2,0.2,1.8,0.4c0.5,0.2,1.1,0.4,1.7,0.6
			C303.5,62.7,304,62.4,304.6,62.3z M308.3,44.9c-0.1-0.9-0.1-1.7,0-2.6c0.1-0.8,0-1.7-0.1-2.6l-0.4-0.1c-0.6,0.3-1.2,0.5-1.8,0.7
			c-0.6,0.2-1.2,0.4-1.8,0.5l-0.4,0.5v2c0.3,0.4,0.5,0.7,0.7,0.7c0.9,0.1,2,0.4,3.4,1.2L308.3,44.9z M308.4,52.6
			c-0.1-1.1-0.1-2.1,0-3c0.1-0.9,0-1.9-0.3-2.8c-0.7-0.3-1.4-0.5-2-0.7c-0.6-0.1-1.3-0.4-1.9-0.8l-0.4,0.3c0.1,1.1,0.1,2.1,0,3.1
			c-0.1,1,0,1.9,0.1,2.8c0.7,0.4,1.4,0.6,2,0.8c0.7,0.2,1.3,0.4,1.9,0.7L308.4,52.6z M308.4,60.4c-0.1-1-0.1-2,0-2.9
			c0.1-0.9,0-1.9-0.3-2.8c-0.7-0.4-1.4-0.6-2-0.8c-0.6-0.1-1.3-0.4-1.9-0.7l-0.4,0.3V59c0.6,0.5,1.3,0.9,2.2,1
			c0.9,0.1,1.5,0.4,2,0.8L308.4,60.4z M308.4,75.9v-4.8l-0.4-0.5c-0.7,0.4-1.4,0.6-2.1,0.8c-0.8,0.1-1.5,0.5-2,0.9v2.2
			c0.7,0.5,1.4,0.8,2.1,1c0.8,0.2,1.5,0.4,2,0.8L308.4,75.9z M308.4,83.5v-5.3l-0.4-0.5c-0.6-0.3-1.2-0.5-1.8-0.7
			c-0.6-0.1-1.2-0.3-1.7-0.6l-0.6,0.2c0.1,1,0.1,2,0,3c-0.1,1,0,1.9,0.1,2.8l0.5,0.4c0.5,0.1,1,0.2,1.6,0.4c0.6,0.2,1.2,0.5,1.8,0.8
			L308.4,83.5z M308.4,91.4c-0.1-1.1-0.1-2.1,0-3c0.1-0.9,0-1.9-0.3-2.8c-0.7-0.3-1.4-0.5-2-0.7c-0.6-0.1-1.3-0.4-1.9-0.8l-0.4,0.3
			v5.6c0.7,0.5,1.4,0.8,2.1,1c0.8,0.2,1.5,0.5,2,0.8L308.4,91.4z M309.9,29.8c0.4-0.3,0.8-0.5,1.2-0.5c0.4-0.1,0.7-0.2,1-0.5
			c-0.4,0-0.8-0.1-1.1-0.3c-0.3-0.2-0.6-0.3-1-0.3l-0.6,0.1c0.1,0.3,0.1,0.6,0,0.8c-0.1,0.3,0,0.5,0.2,0.8H309.9z M315.6,35.6
			c0.3-0.1,0.6-0.3,1-0.4c0.4-0.1,0.8-0.3,1.4-0.6c-0.4-0.2-0.7-0.3-1.1-0.3c-0.4,0-0.7-0.1-1-0.3l-0.6,0.1c0.1,0.3,0.1,0.6,0,0.8
			C315.3,35.2,315.4,35.4,315.6,35.6L315.6,35.6z"/>
		<path class="st8" d="M326.2,100c-0.9-0.2-1.8-0.6-2.7-1c-0.2-11.7-0.2-23.4-0.2-35.2c0.1-11.7,0.1-23.5,0-35.3
			c5.9-1.2,11.8-3.3,17.7-6.2c5.9-3.1,11.8-3.6,17.8-1.7l0.4,0.7v2.8l0.4,0.6c0.8,0.4,1.7,0.7,2.6,1c0.9,0.2,1.8,0.6,2.8,1
			c0.1,3,0.1,6,0.1,9.1c-0.1,3,0,6.1,0.1,9.1v5.4l-0.4,0.4c-1.2,0.6-2.8,1.1-4.7,1.5l-0.3,0.2l-0.5,0.8v7c-0.1,0.1-0.3,0.1-0.4,0.2
			c-0.2,0.1-0.4,0.2-0.5,0.4c-2.7,0.8-5.3,1.6-7.9,2.6c-2.6,0.9-5.3,1.8-7.9,2.5c-0.2,0.3-0.4,0.6-0.6,0.9v30.1
			c-0.1,0.1-0.2,0.2-0.3,0.3c-0.1,0.1-0.2,0.2-0.5,0.4c-2,0.4-3.9,1-5.8,1.9c-1.9,0.8-3.9,1.4-5.9,1.6h-0.4
			C328,100.5,327.1,100.2,326.2,100z M328.9,37.3V32l-0.4-0.7c-0.8-0.2-1.5-0.5-2-0.7c-0.6-0.2-1.1-0.5-1.6-0.7l-0.4,0.3
			c0.1,1.1,0.1,2.1,0,3.1c-0.1,1,0,1.9,0.2,2.8c0.7,0.3,1.3,0.6,2,0.8c0.7,0.2,1.3,0.5,2,0.8L328.9,37.3z M328.9,52.8v-5.4l-0.4-0.6
			c-0.8-0.2-1.5-0.5-2-0.7c-0.6-0.2-1.1-0.5-1.6-0.7l-0.4,0.3c0.1,1.1,0.1,2.1,0,3.1c-0.1,1,0,1.9,0.2,2.8c0.7,0.4,1.3,0.6,2,0.8
			c0.7,0.2,1.3,0.4,2,0.7L328.9,52.8z M328.9,91.6V86l-0.4-0.7c-0.7-0.2-1.3-0.4-1.9-0.5c-0.6-0.1-1.2-0.4-1.7-0.7l-0.4,0.3
			c0.1,1.1,0.1,2.1,0,3.1c-0.1,1,0,1.9,0.2,2.8c0.7,0.3,1.3,0.6,2,0.8c0.7,0.2,1.3,0.5,2,0.7L328.9,91.6z M328.9,45.1v-5.6l-0.5-0.7
			c-0.7-0.1-1.4-0.2-2-0.5s-1.3-0.4-1.9-0.4v5.5l0.4,0.5c0.6,0.3,1.2,0.5,1.8,0.7c0.6,0.2,1.2,0.4,1.8,0.6L328.9,45.1z M328.9,60.7
			v-5.6l-0.4-0.7c-0.7-0.2-1.3-0.4-1.9-0.5c-0.6-0.1-1.2-0.4-1.7-0.7l-0.4,0.3V59c0.6,0.5,1.3,0.9,2,1c0.8,0.1,1.5,0.4,2.1,0.8
			L328.9,60.7z M328.9,68.2v-5.2l-0.4-0.7c-0.7-0.2-1.3-0.4-1.9-0.7c-0.6-0.3-1.2-0.5-1.7-0.6l-0.4,0.1v5.6c0.2,0.4,0.5,0.7,0.7,0.7
			c0.6,0.1,1.2,0.2,1.7,0.4c0.5,0.2,1.1,0.5,1.7,0.7L328.9,68.2z M328.9,76v-5.5l-0.5-0.7c-0.7-0.1-1.4-0.3-2.1-0.6
			c-0.7-0.3-1.3-0.4-1.8-0.4v5.6l0.4,0.5c0.6,0.2,1.2,0.4,1.8,0.6c0.6,0.2,1.2,0.4,1.8,0.7L328.9,76z M328.9,83.6v-5.2l-0.4-0.7
			c-0.7-0.2-1.3-0.4-1.9-0.6c-0.6-0.2-1.2-0.4-1.7-0.6l-0.4,0.2v5.5c0.3,0.4,0.5,0.7,0.7,0.7c0.8,0.1,1.9,0.5,3.4,1.2L328.9,83.6z
			 M328.9,99.3c-0.1-1.1-0.1-2.1,0-3.1c0.1-1,0-2-0.2-3c-0.7-0.1-1.3-0.3-2-0.6c-0.7-0.3-1.2-0.5-1.6-0.7l-0.5,0.1v5.6l0.4,0.5
			c0.6,0.4,1.2,0.6,1.8,0.7c0.6,0.1,1.2,0.3,1.8,0.5L328.9,99.3z M331.3,29.4c0.7-0.1,1.2-0.3,1.8-0.5c-0.2-0.1-0.5-0.2-0.9-0.4
			c-2.3-0.9-4.2-0.7-5.9,0.6c0.9,0.1,2.1,0.5,3.4,1.1C330,29.8,330.6,29.5,331.3,29.4z M337.1,27.6c0.7,0,1.3-0.3,1.7-0.7
			c-0.7-0.1-1.3-0.2-1.9-0.5c-0.6-0.3-1.2-0.4-1.7-0.4c-0.6,0.2-1.2,0.4-1.7,0.6c-0.5,0.1-1,0.3-1.5,0.5c0.6,0.2,1.2,0.4,1.7,0.6
			c0.6,0.2,1.1,0.4,1.7,0.6C335.8,27.8,336.4,27.6,337.1,27.6z M342.8,25.7c0.5-0.1,1.1-0.2,1.7-0.5c-2.4-1.3-4.6-1.3-6.7,0
			c0.9,0.2,2,0.6,3.3,1.2C341.7,25.9,342.3,25.7,342.8,25.7z M342.3,53c0.7-0.4,1.4-0.7,2.1-0.8s1.3-0.4,1.9-1
			c-0.1-2.9-0.1-5.8,0-8.7c0.1-2.9,0-5.7-0.1-8.6h-0.4c-0.7,0.4-1.4,0.7-2.1,0.8c-0.7,0.1-1.3,0.3-1.9,0.8c0.1,3,0.1,6,0,8.8
			c-0.1,2.9,0,5.8,0.2,8.7H342.3z M342.1,56.9c0.4-0.2,0.8-0.3,1.2-0.5c0.4-0.1,0.8-0.3,1.2-0.5c-0.9-0.4-1.6-0.6-2.1-0.6l-0.5,0.1
			c0.1,0.3,0.1,0.6,0,0.8C341.8,56.5,341.8,56.7,342.1,56.9L342.1,56.9z M348.7,54.6c0.6-0.3,1.2-0.5,1.7-0.6
			c-0.7-0.2-1.3-0.4-1.9-0.6c-0.6-0.2-1.2-0.4-1.6-0.5c-0.6,0.3-1.2,0.5-1.8,0.7c-0.6,0.1-1.1,0.3-1.6,0.5c0.6,0.2,1.2,0.4,1.7,0.6
			c0.5,0.2,1.1,0.4,1.7,0.7C347.5,55.1,348.1,54.9,348.7,54.6z M348.7,23.7c0.6-0.1,1.2-0.3,1.6-0.7c-0.8-0.1-1.6-0.3-2.4-0.6
			c-0.7-0.4-1.5-0.4-2.2-0.1c-0.2,0.1-0.5,0.2-0.8,0.4c-0.3,0.1-0.7,0.2-1.1,0.4l-0.4,0.3c0.7,0.1,1.2,0.2,1.7,0.5
			c0.5,0.3,1.1,0.5,1.6,0.6C347.5,24,348.1,23.8,348.7,23.7z M352.1,37.3v-5l-0.3-0.4c-0.7,0.5-1.5,0.8-2.2,0.8
			c-0.8,0.1-1.4,0.4-2,0.8v2.2l0.4,0.5c0.6,0.1,1.2,0.3,1.8,0.6c0.6,0.3,1.2,0.5,1.7,0.8L352.1,37.3z M352.1,44.9
			c-0.1-1-0.1-2,0-2.9c0.1-0.9,0-1.9-0.3-2.8c-0.8-0.3-1.5-0.6-2.1-0.8c-0.7-0.2-1.3-0.4-2-0.4v5.8c0.5,0.4,1.2,0.6,1.9,0.8
			c0.7,0.2,1.4,0.4,2,0.8L352.1,44.9z M352.1,52.9c-0.1-1.1-0.1-2.1,0-3.1c0.1-1,0-2-0.3-3c-0.8-0.1-1.5-0.4-2.1-0.8
			c-0.7-0.4-1.3-0.6-2-0.6v5.9c0.5,0.5,1.2,0.8,1.9,0.9c0.7,0.1,1.4,0.4,2,0.8L352.1,52.9z M354.5,21.8c0.6-0.2,1.1-0.4,1.7-0.7
			c-0.7-0.2-1.3-0.4-1.9-0.6c-0.6-0.1-1.1-0.3-1.6-0.5c-0.5,0.1-0.9,0.2-1.2,0.4c-0.4,0.2-0.7,0.3-1.1,0.3c-0.2,0.1-0.4,0.2-0.6,0.2
			c-0.2,0-0.4,0.1-0.5,0.1c0.6,0.2,1.2,0.5,1.7,0.7c0.5,0.2,1.1,0.4,1.7,0.6C353.3,22.2,353.9,22,354.5,21.8z M359.5,27.9
			c0.5-0.2,0.9-0.4,1.3-0.4c0.4-0.1,0.8-0.2,1.1-0.4c-0.4-0.2-0.7-0.3-1.1-0.4c-0.4-0.1-0.7-0.2-0.9-0.4l-0.6,0.1
			c0.1,0.3,0.1,0.6,0,0.8C359.2,27.4,359.2,27.6,359.5,27.9L359.5,27.9z"/>
		<path class="st9" d="M369.9,99.9c-0.9-0.2-1.9-0.6-2.9-1.1V26.9c5.9-2.3,11.8-4.4,17.8-6.2c6-1.8,12-3.8,18-6
			c1.1,0,2.1,0.3,3.2,0.8c1.1,0.5,2.2,0.9,3.4,1.2l0.2,0.4v8.3c-0.2,0-0.3,0.1-0.4,0.3c-0.1,0.2-0.3,0.3-0.6,0.4
			c-1.9,0.7-3.9,1.3-5.9,1.9c-2,0.6-4.1,1.3-6.1,2.2c-2,0.6-3.9,1.2-5.6,1.7c-1.7,0.5-3.3,1.1-4.8,1.7l-0.4,0.6v17.3l0.4,0.4
			c3-0.8,5.8-1.7,8.4-2.7c2.9-1.1,5.8-0.7,8.7,1.2l0.3,0.4V59c-2.5,1.1-5.2,2.1-8.2,3.1c-3,0.9-5.9,1.9-8.7,2.8l-0.3,0.1
			c-0.1,0-0.3,0.3-0.6,0.8c0.1,3,0,6,0,8.9c-0.1,2.9,0,5.9,0.3,8.9c3.7-0.6,7.5-1.8,11.2-3.7c3.8-1.9,7.6-1.9,11.4-0.1
			c0.5,0.2,0.8,0.4,0.9,0.5c0.1,1.4,0.1,2.8,0.1,4.2c-0.1,1.4-0.1,2.8,0,4.2l-0.2,0.4c-3.3,1.1-6.5,2.1-9.8,3.2
			c-3.3,1.1-6.6,2.2-10,3.3c-2.9,0.9-5.7,1.8-8.4,2.9c-2.7,1-5.5,1.9-8.3,2.4h-0.3C371.8,100.5,370.8,100.1,369.9,99.9z M373,35.6
			c-0.2-1.1-0.2-2.1-0.1-3c0.1-0.9,0.1-1.9-0.2-2.9c-0.8-0.4-1.5-0.6-2.1-0.7c-0.7-0.1-1.3-0.4-1.9-0.8l-0.4,0.4v5.7
			c0.6,0.5,1.3,0.8,2.1,1c0.8,0.2,1.5,0.5,2.2,0.8L373,35.6z M373,43.7c-0.2-1-0.2-2,0-3.1c0.1-1.1,0-2.1-0.4-3.1
			c-0.7-0.3-1.3-0.5-1.9-0.7c-0.6-0.2-1.2-0.4-1.7-0.5l-0.6,0.1V42c0.3,0.5,0.5,0.7,0.7,0.8c0.9,0.1,2.1,0.5,3.5,1.1L373,43.7z
			 M373,51.4c-0.2-1-0.2-2-0.1-3c0.1-1,0.1-2-0.2-3c-0.8-0.3-1.5-0.5-2.1-0.7c-0.7-0.1-1.3-0.4-1.9-0.8l-0.4,0.3V50
			c0.6,0.5,1.3,0.9,2.1,1.1c0.8,0.2,1.5,0.4,2.2,0.8L373,51.4z M373,59.3v-5.4l-0.4-0.6c-0.7-0.2-1.3-0.4-1.9-0.6
			c-0.6-0.2-1.2-0.4-1.7-0.6l-0.6,0.1v5.8c0.2,0.4,0.5,0.6,0.7,0.6c0.9,0.2,2,0.6,3.5,1.2L373,59.3z M373,67.5V62l-0.4-0.7
			c-0.8-0.2-1.5-0.4-2.3-0.8c-0.8-0.3-1.4-0.5-2-0.5v5.8c0.2,0.4,0.5,0.6,0.7,0.6c0.6,0.1,1.2,0.3,1.7,0.6c0.5,0.3,1.1,0.5,1.8,0.7
			L373,67.5z M373,75.4c-0.2-1-0.2-2,0-3.1c0.1-1.1,0-2.1-0.4-3.1c-0.7-0.3-1.3-0.5-1.9-0.7c-0.6-0.1-1.2-0.4-1.7-0.7l-0.6,0.2v5.7
			c0.2,0.4,0.5,0.7,0.7,0.7c0.5,0.1,1,0.2,1.6,0.4c0.6,0.2,1.2,0.5,1.9,0.8L373,75.4z M373,83.5c-0.2-1.1-0.2-2.1-0.1-3.2
			c0.1-1.1,0.1-2.1-0.2-3.2c-0.8-0.2-1.5-0.4-2.1-0.6c-0.7-0.1-1.3-0.4-1.9-0.8l-0.4,0.4v5.5l0.4,0.5c0.6,0.3,1.2,0.5,1.8,0.7
			c0.6,0.1,1.3,0.4,1.9,0.8L373,83.5z M373,91.3c-0.2-1.1-0.2-2.1,0-3.2c0.1-1.1,0-2.1-0.4-3.1c-2.1-0.7-3.5-1.1-4.3-1.1v5.7
			c0.2,0.3,0.5,0.5,0.7,0.6c0.6,0.1,1.2,0.3,1.7,0.6c0.5,0.3,1.1,0.5,1.8,0.7L373,91.3z M373,99.3c-0.2-1.1-0.2-2.1-0.1-3.2
			C373,95,373,94,372.7,93c-0.8-0.1-1.5-0.3-2.1-0.6c-0.7-0.3-1.3-0.5-1.9-0.6l-0.4,0.3v5.4l0.4,0.5c0.6,0.3,1.2,0.5,1.8,0.7
			c0.6,0.2,1.3,0.4,1.9,0.7L373,99.3z M375.3,27.7c0.6-0.1,1.2-0.4,1.7-0.8c-0.7-0.2-1.3-0.4-1.9-0.5c-0.6-0.1-1.2-0.3-1.7-0.5
			c-0.6,0.3-1.2,0.5-1.8,0.7c-0.6,0.2-1.1,0.4-1.5,0.5c1.1,0.3,2.2,0.7,3.4,1.3C374.1,28.1,374.6,27.9,375.3,27.7z M379.6,26.4
			c0.6-0.4,1.2-0.6,1.9-0.7c0.7-0.1,1.2-0.3,1.6-0.6c-3-1.2-5.3-1.2-7.1,0.1c0.6,0.2,1.2,0.4,1.7,0.6c0.5,0.2,1.1,0.4,1.7,0.7H379.6
			z M387.3,23.7c0.7-0.1,1.3-0.2,1.9-0.4c-0.6-0.3-1.1-0.5-1.6-0.6c-0.5-0.1-0.9-0.3-1.4-0.6c-1.9,0.3-3.2,0.7-4,1.3
			c0.5,0.1,1,0.2,1.6,0.4c0.6,0.2,1.2,0.5,1.9,0.8C386.1,24,386.6,23.7,387.3,23.7z M386.6,55.8c0.4-0.3,0.8-0.5,1.2-0.5
			c0.4,0,0.8-0.2,1.2-0.4c-1.1-0.4-1.9-0.7-2.4-0.8l-0.4,0.3c0.1,0.2,0,0.5,0,0.7c-0.1,0.2,0,0.5,0.1,0.7H386.6z M389,86.7
			c-0.3-0.2-0.7-0.4-1.1-0.5c-0.4-0.1-0.8-0.2-1.2-0.5l-0.5,0.2c0.1,0.3,0,0.6,0,1c-0.1,0.4,0,0.6,0.3,0.7
			C387.6,87,388.5,86.7,389,86.7z M393.3,21.7c0.6-0.2,1.2-0.4,1.6-0.5c-2.3-1.1-4.6-1.1-6.9,0c0.8,0.2,2,0.6,3.4,1.2
			C392,22.2,392.7,21.9,393.3,21.7z M393.2,53.4c0.6-0.1,1.2-0.3,1.7-0.6c-0.9-0.4-2.1-0.8-3.6-1.1c-0.6,0.1-1.2,0.3-1.8,0.5
			c-0.6,0.2-1.1,0.4-1.6,0.5c0.5,0.3,1.1,0.5,1.7,0.7c0.6,0.1,1.2,0.4,1.6,0.7C392,53.7,392.6,53.5,393.2,53.4z M393.2,85.2
			c0.6-0.2,1.2-0.4,1.7-0.7c-2.5-1.1-4.8-1.1-6.9,0c0.6,0.2,1.2,0.5,1.7,0.7c0.5,0.2,1.1,0.4,1.7,0.7
			C392,85.6,392.6,85.4,393.2,85.2z M399.1,19.7c0.7-0.1,1.3-0.3,1.9-0.6c-0.6-0.2-1.2-0.4-1.7-0.6c-0.5-0.1-1.1-0.3-1.6-0.6
			c-0.7,0.2-1.3,0.4-2,0.6c-0.7,0.2-1.3,0.5-1.7,0.8c0.5,0.1,1,0.2,1.6,0.4c0.6,0.2,1.2,0.5,1.9,0.8
			C397.9,20.1,398.4,19.9,399.1,19.7z M399.1,51.5c0.5-0.1,1.1-0.3,1.6-0.6c-2.4-1.3-4.6-1.2-6.8,0.2c0.7,0.1,1.2,0.2,1.8,0.5
			c0.5,0.3,1.1,0.5,1.7,0.6C398.1,51.8,398.6,51.6,399.1,51.5z M399.2,83.2c0.7-0.1,1.2-0.4,1.6-0.8c-0.6-0.1-1.2-0.2-1.8-0.5
			c-0.6-0.3-1.1-0.4-1.6-0.5c-0.6,0.4-1.2,0.6-1.9,0.7c-0.7,0.1-1.2,0.3-1.6,0.5c0.7,0.1,1.2,0.3,1.8,0.6c0.5,0.3,1.1,0.5,1.7,0.7
			C397.9,83.5,398.5,83.3,399.2,83.2z M405.2,17.8c0.7-0.1,1.3-0.3,1.6-0.7c-1.2-0.4-2.4-0.6-3.6-0.7c-1.2-0.1-2.3,0.2-3.4,0.8
			c0.6,0.4,1.2,0.6,1.8,0.6c0.6,0.1,1.2,0.3,1.8,0.6C403.8,18,404.4,17.8,405.2,17.8z M405.1,81.2c0.6-0.3,1.3-0.5,1.9-0.7
			c-0.7-0.1-1.3-0.3-2-0.5c-0.7-0.2-1.2-0.4-1.8-0.6c-0.6,0.3-1.2,0.5-1.8,0.7c-0.6,0.2-1.2,0.3-1.6,0.4l3.5,1.3
			C403.9,81.7,404.5,81.5,405.1,81.2z"/>
	</g>
</g>
</svg>
