<?xml version="1.0" encoding="utf-8"?>
<!-- Generator: Adobe Illustrator 19.0.0, SVG Export Plug-In . SVG Version: 6.00 Build 0)  -->
<svg version="1.1" id="Calque_1" xmlns="http://www.w3.org/2000/svg" xmlns:xlink="http://www.w3.org/1999/xlink" x="0px" y="0px"
	 viewBox="0 0 191 191" style="enable-background:new 0 0 191 191;" xml:space="preserve">
<style type="text/css">
	.st0{fill:#26FF00;}
</style>
<path id="XMLID_76_" class="st0" d="M64.9,77.9c4.6,0,8.9,0,13.2,0c1.9,0,3.6-0.4,3.5-2.7c0-2.2-1.5-3.2-3.6-3.2c-4.3,0-8.6,0-13,0
	c0-1.5,0-2.8,0-4.5c3.2,0,6.5,0,9.8,0c1,0,2.1,0.3,2.9-0.1c1.4-0.8,3.5-1.9,3.7-3.1c0.4-2.3-1.9-3.1-3.8-3.2
	c-3.4-0.2-6.9-0.1-10.3-0.1c-0.7,0-1.5-0.1-2.3-0.1c0-1.4,0-2.7,0-4.3c4.1,0,8.2,0,12.2,0c1,0,2.3-0.2,2.9-0.8
	c0.8-0.8,1.6-2.3,1.3-3.2c-0.3-0.8-1.9-1.7-3-1.7c-4.4-0.2-8.8-0.1-13.4-0.1c0-1.7,0-3.2,0-5.1c3.2,0,6.5,0,9.7,0
	c1.1,0,2.2,0.1,3.2,0c1.9-0.2,3.7-0.5,3.6-3c-0.1-2.3-1.8-2.7-3.6-2.8c-3.1-0.1-6.2,0-9.4,0c-1.2,0-2.3,0-3.5,0
	C63.9,28.5,74.6,15,85.1,13.3c0,5.5,0,11,0,16.5c0.3,0,0.7,0.1,1,0.1c0.3-0.7,0.7-1.3,0.7-2c0.3-4.6,0.5-9.2,0.6-13.8
	c0-1.7,0.3-2.7,2.5-1.9c0,5.9,0,11.7,0,17.6c0.4,0.1,0.7,0.1,1.1,0.2c0.3-1.2,0.9-2.3,0.9-3.5c0.1-3.9,0-7.7,0.1-11.6
	c0.1-2.8,0.7-3.4,3.1-3.3C94.4,18,94.2,24.2,95,30.5c0.4,0,0.8,0.1,1.2,0.1c0.3-1.7,0.9-3.4,0.9-5c0.1-3.9,0-7.7,0.1-11.6
	c0-0.7,1-1.4,1.5-2.2c0.4,0.2,0.9,0.3,1.3,0.5c0,6.1,0,12.2,0,18.3c0.4,0,0.9,0,1.3,0c0.4-5.7,0.8-11.5,1.2-17.2
	c10.8,2.5,19.4,13.8,19.6,26.3c-3.3,0-6.6,0-9.9,0c-1.9,0-4.1,0.1-4.2,2.8c-0.1,2.9,2.2,3,4.3,3c3.2,0,6.4,0,9.8,0
	c0,1.8,0,3.2,0,5.1c-3.4,0-6.8,0-10.2,0c-2,0-3.7,0.2-3.8,2.7c-0.1,2.8,1.9,3,3.9,3.1c3.3,0.1,6.6,0,10.1,0c0,1.5,0,2.7,0,4.5
	c-2.4,0-5,0-7.5,0c-0.9,0-1.9-0.3-2.5,0.1c-1.4,0.8-3.5,1.8-3.8,3.1c-0.5,2.4,1.9,3.2,3.8,3.3c3.3,0.2,6.6,0.1,10.1,0.1
	c0,1.5,0,2.8,0,4.5c-3.3,0-6.6,0-9.9,0c-1.9,0-4.1,0.1-4.2,2.8c-0.1,3,2,3.1,4.2,3c3.2-0.1,6.4,0,10,0c0.3,10.3-3.2,18.9-11.2,24.9
	c-9.4,7-20.2,8.2-30.7,2.7C69.7,99.9,64.6,90.5,64.9,77.9z"/>
<path id="XMLID_75_" class="st0" d="M128.8,59.9c3.5,0,6.7,0,10.3,0c0,2.3,0,4.5,0,6.7c0,7.5,0,15.1,0,22.6
	c0.1,16.7-7.2,29.7-21,38.7c-5.2,3.4-11.4,5.1-17.7,7.8c0,8.9-0.1,18.7,0.1,28.4c0,0.7,1.5,1.8,2.5,2.1c6.6,2,12.2,5.2,14.2,12.8
	c-15.7,0-31.3,0-46.8,0c0.3-5.9,5.4-10.5,16.3-13.6c0-10.1,0-20.1,0-30c-5.3-2-10.8-3.3-15.5-6.1c-11.9-6.8-20.1-16.9-22.3-30.8
	c-1.1-6.8-0.6-13.9-0.8-20.8c-0.1-5.8,0-11.6,0-17.7c3.4,0,6.6,0,10.2,0c0,1,0.1,2,0.1,3c0,7.6-0.1,15.3,0,22.9
	c0.3,15.1,6.7,27.2,19.7,34.8c12.2,7.2,26,5.3,36.9-4.4c9.9-8.8,13.9-20.2,13.8-33.2C128.8,75.5,128.8,67.9,128.8,59.9z"/>
</svg>
