<?xml version="1.0" encoding="utf-8"?>
<!-- Generator: Adobe Illustrator 19.0.0, SVG Export Plug-In . SVG Version: 6.00 Build 0)  -->
<svg version="1.1" id="Calque_1" xmlns="http://www.w3.org/2000/svg" xmlns:xlink="http://www.w3.org/1999/xlink" x="0px" y="0px"
	 viewBox="0 0 191 191" style="enable-background:new 0 0 191 191;" xml:space="preserve">
<style type="text/css">
	.st0{fill:#062EF4;}
</style>
<path id="XMLID_109_" class="st0" d="M82.9,151.6c-1.5,0.6-1.5,1.7-1.8,2.9c-0.8,3.4-1.4,6.9-3.6,9.6c-4.4,5.4-9.7,9.3-17.1,8.5
	c-3.7-0.4-7.1-1.9-10.3-3.8c-5.2-3-9.7-7-13.7-11.4c-4.2-4.6-7.3-9.9-8.4-16.1c-0.9-5-0.6-10.1,2.6-14.3c1.3-1.8,3.3-3.3,5.3-4.3
	c5.1-2.5,10.3-4.8,15.5-7c3.6-1.5,5.6-4.3,7-7.8c2.5-6.2,4.8-12.4,7.3-18.6c1.2-2.9,3.8-4.5,6.5-5.9c1.2-0.6,2.6-1,3.9-1.3
	c1.3-0.3,2.8-0.1,3.7,1.1c0.8,1.2,0.2,2.2-0.6,3.2c-0.5,0.6-0.9,1.3-1.4,2c-2.2,3-4,6.2-3.6,10.2c0.4,3.3,1.2,6.4,3.6,9.1
	c1.1-1.3,2.2-2.6,3.2-3.9c4-5,8-10.1,12-15.1c3.9-5,7.8-10,11.7-14.9c3.5-4.4,7-8.8,10.5-13.2c3.5-4.4,6.9-8.9,10.4-13.3
	c1.9-2.4,3.9-4.6,5.6-7.1c1.7-2.5,3.5-5.1,3.5-8.4c0-1.2,0.6-2.1,1.6-2.8c1.1-0.7,2.1-1.5,3.2-2.4c-0.2-0.3-0.3-0.7-0.6-0.8
	c-1.8-0.9-2.3-1.7-1.7-2.9c0.6-1.3,1.5-1.5,3.2-0.6c0.2-2.8,0.6-3.2,3.2-2.5c0.5-2.8,1.3-3.2,3.9-2c0.1,1,0.1,2,0.2,3.1
	c0.7-0.4,1.4-0.9,2.1-1.3c-0.9-0.6-1.6-1.2-2.3-1.7c-0.2-2.4,0.1-2.9,1.7-2.9c1.4,0.1,2.3,1.3,2,2.6c-0.1,0.3-0.1,0.6-0.2,1.3
	c0.9-0.7,1.5-1.2,1.9-1.6c-0.8-1-1.6-1.7-2.1-2.6c-0.2-0.2,0-0.9,0.2-1.2c0.9-1.3,2.1-1,3.2-0.3c0.2-1.2-0.5-3,1.6-3.1
	c1.4-0.1,1.9,0.7,2.1,3.4c0.5-0.2,1-0.4,1.5-0.6c2.4-1.2,6,0.2,7,2.6c0.6,1.5,0,4.8-1.2,5.9c-0.2,0.2-0.6,0.4-0.8,0.4
	c-4.2-0.5-5.9,2.4-7.5,5.4c-1.8,3.3-3.4,6.8-5.2,10.1c-0.6,1.1-1.1,2.2-1.7,3.2c-0.9,1.5-1.8,1.9-3.8,1c-2.3-0.9-4-0.3-5.4,1.4
	c-3.8,4.5-7.5,9-11.2,13.6c-3.2,3.9-6.2,7.9-9.3,11.9c-3,3.8-6,7.5-9,11.3c-3.4,4.2-6.7,8.5-10.1,12.7c-5.8,7.3-11.5,14.6-17.4,22.1
	c2.4,1.9,3.9,5.2,7.3,5.8c2.9,0.5,5.9,0.3,8.8,0.1c2.1-0.2,3.5,0.1,4.4,1.7c0.8,1.3,0.5,3.6-0.9,4.7c-2.8,2.3-5.7,4.3-8.6,6.5
	c-2.7,2-5.5,3.9-8.1,6.1c-2.2,1.9-3,4.7-3.7,7.5c-0.2,0.9-0.3,1.8-0.5,2.8 M93.3,95.2c-1.7,1.9-3.5,3.8-5.2,5.7
	c0.2,0.1,0.3,0.3,0.5,0.4C90.2,99.2,91.7,97.2,93.3,95.2c1.6-2.1,3.2-4.1,4.9-6.1c-0.1-0.1-0.2-0.2-0.4-0.3c-1.2,1.5-2.5,3-3.7,4.6
	C93.8,94,93.6,94.6,93.3,95.2z M61.3,146.4c3.2,2.9,6.1,6,7.6,10.2c0.8,2.4,1.4,4.8,2.1,7.2c0.5,1.7,1.2,2,2.7,1.4
	c1.6-0.7,2.5-1.8,2.9-3.4c1.1-5,2.1-10,3.3-15c0.6-2.5,0.6-5.3,2.9-7.1c3.4-2.6,7-5.1,10.4-7.7c2.5-2,4.9-4.2,7.2-6.4
	c1-0.9,0.5-1.9-0.6-2c-1.9-0.2-3.9-0.1-5.9,0.1c-2.8,0.3-5.7,1.1-8.4-0.2c-2-1-3.8-2.5-5.6-3.8c-0.7,0.2-1.5,0.3-2.4,0.5
	c0.1,0.2,0.2,0.4,0.4,0.5c1.4,1.2,1.6,2.3,0.8,3.4c-0.9,1.2-1.8,1.3-3.6,0.5c-0.3-0.2-0.9-0.2-1.1,0c-1,1.1-1.9,2.3-2.9,3.5
	c1.8,1.4,2.2,2.9,1.4,4c-0.7,1-2,1.1-3.7,0.3c-0.3-0.1-0.9-0.1-1.1,0.1c-1,1.1-1.9,2.3-2.8,3.4c1.9,2,2.1,3.1,1.3,4.3
	c-0.7,1-2.5,0.9-4.5-0.2c-0.7,0.9-1.4,1.8-2.2,2.7c0.7,0.5,1.3,1,1.9,1.5c-0.9,1.3-1.7,2.6-2.7,3.8c-1.1,1.2-2.3,2.3-3.6,3.3
	c-1.4,1.1-3,1.7-4.9,1.1c-2.6-0.7-3.3-2.7-3.7-4.9c-0.3,2.1,0.4,3.7,2.1,4.9c2.4,1.6,4.1,1.4,7.2-0.8
	C57.8,150.1,59.4,148.2,61.3,146.4z M72.6,116.3c-0.4-1.8-0.5-1.9,0.9-3.6c1.2-1.4,1.3-2.7,0.3-4.2c-0.6-0.9-1-1.9-1.3-2.9
	c-2.1-5.6-2.8-11.1,1.9-16c1.3-1.4,2.2-3.2,3.2-4.8c-0.1-0.1-0.2-0.3-0.4-0.4c-1.1,0.5-2.4,0.7-3.4,1.4c-1.9,1.4-4.3,2.7-5.3,4.7
	c-1.8,3.4-2.8,7.2-4,10.9c-1,3.3-1.3,6.9-2.7,10c-2.1,4.4-4.9,8.4-7.6,12.6c-1.6,2.5-3.5,4.8-5.2,7.3c-1.2,1.7-1.2,3-0.1,4.4
	c0.8,1.1,1.8,2,2.7,3c0.4-0.4,0.7-0.9,1-1.3c0.8,0.5,1.5,1,2.2,1.4c0.5-0.6,0.8-1,1.1-1.5c0.3-0.5,0.7-0.9,1-1.4
	c-1.6-1.1-2.1-2.7-1.4-3.9c0.9-1.3,2.6-1.3,4.4,0.1c1.1-1.4,2.1-2.7,3.2-4.1c-1.6-1.1-2.1-2.7-1.4-3.8c0.8-1.3,1.9-1.3,4.6-0.1
	c1-1.3,2.1-2.6,3.1-3.9c-1.6-1.1-2.2-2.6-1.4-3.8C69.3,114,71,115.5,72.6,116.3z M144,23.4c0.8-0.6,1.4-1.1,2.2-1.8
	c-0.9-0.5-1.5-0.8-2.2-1.1C144,21.5,144,22.3,144,23.4z M127.9,50.9c0.1,0.1,0.2,0.2,0.3,0.3c1.6-2,3.1-3.9,4.7-5.9
	c-0.1-0.1-0.2-0.2-0.3-0.3C131,47,129.4,48.9,127.9,50.9z M126.6,53.2c-0.1-0.1-0.2-0.2-0.3-0.3c-1.6,2-3.1,3.9-4.7,5.9
	c0.1,0.1,0.2,0.2,0.3,0.3C123.5,57.1,125.1,55.1,126.6,53.2z M82,108.8c0.1,0.1,0.2,0.2,0.3,0.3c1.6-2,3.1-3.9,4.7-5.9
	c-0.1-0.1-0.2-0.2-0.3-0.3C85.2,104.9,83.6,106.9,82,108.8z M110.5,72.8c0.1,0.1,0.2,0.2,0.3,0.3c1.6-2,3.1-3.9,4.7-5.9
	c-0.1-0.1-0.2-0.2-0.3-0.3C113.6,68.9,112.1,70.8,110.5,72.8z M104.4,81.3c-0.1-0.1-0.2-0.2-0.3-0.3c-1.6,2-3.1,3.9-4.7,5.9
	c0.1,0.1,0.2,0.2,0.3,0.3C101.3,85.2,102.8,83.3,104.4,81.3z M140.6,22.7c0,1,0,1.8,0,2.8c0.7-0.4,1.3-0.8,2.2-1.3
	C142,23.7,141.4,23.3,140.6,22.7z M156.5,14.7c-0.8-0.4-1.4-0.7-2.1-1c0,0.9,0,1.7,0,2.6C155.1,15.7,155.7,15.3,156.5,14.7z"/>
</svg>
