<?xml version="1.0" encoding="utf-8"?>
<!-- Generator: Adobe Illustrator 19.0.0, SVG Export Plug-In . SVG Version: 6.00 Build 0)  -->
<svg version="1.1" id="Calque_1" xmlns="http://www.w3.org/2000/svg" xmlns:xlink="http://www.w3.org/1999/xlink" x="0px" y="0px"
	 viewBox="0 0 191 191" style="enable-background:new 0 0 191 191;" xml:space="preserve">
<style type="text/css">
	.st0{fill:#00FFFF;}
</style>
<g id="XMLID_81_">
	<path id="XMLID_86_" class="st0" d="M150.5,11.6c7.1,6.4,8.1,14.6,8,23.8c-0.3,39.5-0.3,79.1,0,118.6c0.1,8.5-4,13-10.7,16.5
		c-2.5,1.3-4.7,3.2-7,4.8c-5.8,4.2-11.4,4.9-17.4,0.1c-1.9-1.6-4.8-2.8-7.2-2.8c-15.7-0.3-31.4-0.1-47-0.1c-1.6,0-4.3-0.5-4.7,0.3
		c-3.6,6.2-10,7.5-14.9,5.1c-6.8-3.3-12.6-9-18.2-14.3c-1.7-1.6-2.2-5.2-2.2-7.9c-0.1-43.1-0.3-86.3,0.3-129.4
		c0.1-4.9,4.9-9.8,7.5-14.7C74.7,11.6,112.6,11.6,150.5,11.6z M94.2,60.7c-26.5-1.4-50.1,21.5-49.6,49.1
		c0.4,27.4,20.2,48.7,48.9,48.6c28.2-0.1,48.3-19.2,49-49.5C143.2,82,120.1,59.9,94.2,60.7z M94,23.4c-11.4-0.1-18,6-18,16.7
		c0,9.1,7.7,16.6,17.1,16.7c9.2,0.1,17.6-7.5,18.1-16.2C111.6,32.2,102.8,23.5,94,23.4z"/>
	<path id="XMLID_83_" class="st0" d="M52.4,109C52.4,87.2,71,69.1,93,68.3c20.6-0.7,42.7,17.2,41.6,41.4
		c-1.2,25.6-17.4,40.5-40.9,40.6C71.3,150.5,53,135.5,52.4,109z M93.6,125.4c10.7,0,17.9-6.5,17.6-16c-0.2-9-8.2-17.2-17.2-17.3
		c-9.4-0.2-18.5,8.1-17.9,17.5C76.9,119.7,82.2,126.2,93.6,125.4z"/>
	<path id="XMLID_72_" class="st0" d="M103.4,40c1.2,7.8-3.7,10.7-10.2,10.6c-6.1-0.1-9.9-3.3-9.5-10.6c0.4-6.5,1.9-11.1,9.3-10.7
		C99.2,29.8,104.6,31.8,103.4,40z"/>
</g>
</svg>
